<mxGraphModel dx="0" dy="0" grid="1" gridSize="10" guides="1" tooltips="1" connect="1" arrows="1" fold="1" page="0" pageScale="1" background="none" math="0" shadow="0">
  <root>
    <mxCell id="0" />
    <mxCell id="1" parent="0" />
    <mxCell id="node15" parent="1" vertex="1" value="&lt;p style=&quot;margin:0px;margin-top:4px;text-align:center;&quot;&gt;&lt;b&gt;CinemaJsonRepository&lt;/b&gt;&lt;/p&gt;&lt;hr size=&quot;1&quot;/&gt;&lt;p style=&quot;margin:0 0 0 4px;line-height:1.6;&quot;&gt;# serialize(List&amp;lt;CinemaEntity&amp;gt;): String&lt;br/&gt;# deserialize(String): List&amp;lt;CinemaEntity&amp;gt;&lt;br/&gt;+ add(CinemaAddEntity): Unit&lt;/p&gt;" style="verticalAlign=top;align=left;overflow=fill;fontSize=14;fontFamily=Helvetica;html=1;rounded=0;shadow=0;comic=0;labelBackgroundColor=none;strokeWidth=1;">
      <mxGeometry x="597" y="2197" width="286" height="124" as="geometry" />
    </mxCell>
    <mxCell id="node63" parent="1" vertex="1" value="&lt;p style=&quot;margin:0px;margin-top:4px;text-align:center;&quot;&gt;&lt;i&gt;&amp;lt;&amp;lt;interface&amp;gt;&amp;gt;&lt;/i&gt;&lt;br/&gt;&lt;b&gt;CinemaRepository&lt;/b&gt;&lt;/p&gt;&lt;hr size=&quot;1&quot;/&gt;&lt;p style=&quot;margin:0 0 0 4px;line-height:1.6;&quot;&gt;+ delete(UUID): Unit&lt;br/&gt;+ add(CinemaAddEntity): Unit&lt;br/&gt;+ getById(UUID): CinemaEntity&lt;/p&gt;&lt;hr size=&quot;1&quot;/&gt;&lt;p style=&quot;margin:0 0 0 4px;line-height:1.6;&quot;&gt; all: List&amp;lt;CinemaEntity&amp;gt;&lt;/p&gt;" style="verticalAlign=top;align=left;overflow=fill;fontSize=14;fontFamily=Helvetica;html=1;rounded=0;shadow=0;comic=0;labelBackgroundColor=none;strokeWidth=1;">
      <mxGeometry x="1848" y="1002" width="224" height="145" as="geometry" />
    </mxCell>
    <mxCell id="node3" parent="1" vertex="1" value="&lt;p style=&quot;margin:0px;margin-top:4px;text-align:center;&quot;&gt;&lt;b&gt;ConfigReader&lt;/b&gt;&lt;/p&gt;&lt;hr size=&quot;1&quot;/&gt;&lt;p style=&quot;margin:0 0 0 4px;line-height:1.6;&quot;&gt; config: Config&lt;/p&gt;" style="verticalAlign=top;align=left;overflow=fill;fontSize=14;fontFamily=Helvetica;html=1;rounded=0;shadow=0;comic=0;labelBackgroundColor=none;strokeWidth=1;">
      <mxGeometry x="6101" y="2225" width="158" height="64" as="geometry" />
    </mxCell>
    <mxCell id="node5" parent="1" vertex="1" value="&lt;p style=&quot;margin:0px;margin-top:4px;text-align:center;&quot;&gt;&lt;b&gt;ConsoleInputReader&lt;/b&gt;&lt;/p&gt;&lt;hr size=&quot;1&quot;/&gt;&lt;p style=&quot;margin:0 0 0 4px;line-height:1.6;&quot;&gt;+ readIntUntilNotNull(): Int&lt;br/&gt;+ readDoubleUntilNotNull(): Double&lt;br/&gt;+ readStringUntilNotNull(): String&lt;br/&gt;+ readDateTimeUntilNotNull(): LocalDateTime&lt;/p&gt;" style="verticalAlign=top;align=left;overflow=fill;fontSize=14;fontFamily=Helvetica;html=1;rounded=0;shadow=0;comic=0;labelBackgroundColor=none;strokeWidth=1;">
      <mxGeometry x="5842" y="1983" width="317" height="143" as="geometry" />
    </mxCell>
    <mxCell id="node36" parent="1" vertex="1" value="&lt;p style=&quot;margin:0px;margin-top:4px;text-align:center;&quot;&gt;&lt;b&gt;ConsoleMenu&lt;/b&gt;&lt;/p&gt;&lt;hr size=&quot;1&quot;/&gt;&lt;p style=&quot;margin:0 0 0 4px;line-height:1.6;&quot;&gt;+ processInputIfNotExit(): Boolean&lt;br/&gt;+ show(): Unit&lt;/p&gt;&lt;hr size=&quot;1&quot;/&gt;&lt;p style=&quot;margin:0 0 0 4px;line-height:1.6;&quot;&gt; menuItems: List&amp;lt;MenuItem&amp;gt;&lt;/p&gt;" style="verticalAlign=top;align=left;overflow=fill;fontSize=14;fontFamily=Helvetica;html=1;rounded=0;shadow=0;comic=0;labelBackgroundColor=none;strokeWidth=1;">
      <mxGeometry x="4757" y="-124" width="246" height="125" as="geometry" />
    </mxCell>
    <mxCell id="node46" parent="1" vertex="1" value="&lt;p style=&quot;margin:0px;margin-top:4px;text-align:center;&quot;&gt;&lt;b&gt;ControllerException&lt;/b&gt;&lt;/p&gt;&lt;hr size=&quot;1&quot;/&gt;" style="verticalAlign=top;align=left;overflow=fill;fontSize=14;fontFamily=Helvetica;html=1;rounded=0;shadow=0;comic=0;labelBackgroundColor=none;strokeWidth=1;">
      <mxGeometry x="3239" y="2480" width="202" height="30" as="geometry" />
    </mxCell>
    <mxCell id="node26" parent="1" vertex="1" value="&lt;p style=&quot;margin:0px;margin-top:4px;text-align:center;&quot;&gt;&lt;b&gt;DefaultFilmIdService&lt;/b&gt;&lt;/p&gt;&lt;hr size=&quot;1&quot;/&gt;&lt;p style=&quot;margin:0 0 0 4px;line-height:1.6;&quot;&gt;+ getIdFromTitle(String): UUID&lt;/p&gt;" style="verticalAlign=top;align=left;overflow=fill;fontSize=14;fontFamily=Helvetica;html=1;rounded=0;shadow=0;comic=0;labelBackgroundColor=none;strokeWidth=1;">
      <mxGeometry x="2649" y="1525" width="222" height="64" as="geometry" />
    </mxCell>
    <mxCell id="node27" parent="1" vertex="1" value="&lt;p style=&quot;margin:0px;margin-top:4px;text-align:center;&quot;&gt;&lt;b&gt;DefaultFilmValidator&lt;/b&gt;&lt;/p&gt;&lt;hr size=&quot;1&quot;/&gt;&lt;p style=&quot;margin:0 0 0 4px;line-height:1.6;&quot;&gt;+ validateTitle(String): Unit&lt;br/&gt;+ validateActors(List&amp;lt;String&amp;gt;): Unit&lt;br/&gt;+ validateDuration(Int): Unit&lt;/p&gt;" style="verticalAlign=top;align=left;overflow=fill;fontSize=14;fontFamily=Helvetica;html=1;rounded=0;shadow=0;comic=0;labelBackgroundColor=none;strokeWidth=1;">
      <mxGeometry x="2494" y="2197" width="253" height="124" as="geometry" />
    </mxCell>
    <mxCell id="node43" parent="1" vertex="1" value="&lt;p style=&quot;margin:0px;margin-top:4px;text-align:center;&quot;&gt;&lt;b&gt;DefaultFilmsController&lt;/b&gt;&lt;/p&gt;&lt;hr size=&quot;1&quot;/&gt;&lt;p style=&quot;margin:0 0 0 4px;line-height:1.6;&quot;&gt;+ deleteFilm(String): Unit&lt;/p&gt;" style="verticalAlign=top;align=left;overflow=fill;fontSize=14;fontFamily=Helvetica;html=1;rounded=0;shadow=0;comic=0;labelBackgroundColor=none;strokeWidth=1;">
      <mxGeometry x="3108" y="1045" width="224" height="64" as="geometry" />
    </mxCell>
    <mxCell id="node35" parent="1" vertex="1" value="&lt;p style=&quot;margin:0px;margin-top:4px;text-align:center;&quot;&gt;&lt;b&gt;DefaultRegistrationService&lt;/b&gt;&lt;/p&gt;&lt;hr size=&quot;1&quot;/&gt;&lt;p style=&quot;margin:0 0 0 4px;line-height:1.6;&quot;&gt;+ login(String, String): Unit&lt;br/&gt;- hashPassword(String): String&lt;br/&gt;+ registerUser(String, String): Unit&lt;/p&gt;" style="verticalAlign=top;align=left;overflow=fill;fontSize=14;fontFamily=Helvetica;html=1;rounded=0;shadow=0;comic=0;labelBackgroundColor=none;strokeWidth=1;">
      <mxGeometry x="5612" y="2197" width="257" height="124" as="geometry" />
    </mxCell>
    <mxCell id="node30" parent="1" vertex="1" value="&lt;p style=&quot;margin:0px;margin-top:4px;text-align:center;&quot;&gt;&lt;b&gt;DefaultRegistrationValidator&lt;/b&gt;&lt;/p&gt;&lt;hr size=&quot;1&quot;/&gt;&lt;p style=&quot;margin:0 0 0 4px;line-height:1.6;&quot;&gt;+ validateLogin(String): Unit&lt;br/&gt;+ validatePassword(String): Unit&lt;/p&gt;" style="verticalAlign=top;align=left;overflow=fill;fontSize=14;fontFamily=Helvetica;html=1;rounded=0;shadow=0;comic=0;labelBackgroundColor=none;strokeWidth=1;">
      <mxGeometry x="6206" y="1031" width="269" height="94" as="geometry" />
    </mxCell>
    <mxCell id="node44" parent="1" vertex="1" value="&lt;p style=&quot;margin:0px;margin-top:4px;text-align:center;&quot;&gt;&lt;b&gt;DefaultSessionsController&lt;/b&gt;&lt;/p&gt;&lt;hr size=&quot;1&quot;/&gt;&lt;p style=&quot;margin:0 0 0 4px;line-height:1.6;&quot;&gt;+ addSession(SessionData): Unit&lt;/p&gt;" style="verticalAlign=top;align=left;overflow=fill;fontSize=14;fontFamily=Helvetica;html=1;rounded=0;shadow=0;comic=0;labelBackgroundColor=none;strokeWidth=1;">
      <mxGeometry x="2334" y="2025" width="252" height="64" as="geometry" />
    </mxCell>
    <mxCell id="node32" parent="1" vertex="1" value="&lt;p style=&quot;margin:0px;margin-top:4px;text-align:center;&quot;&gt;&lt;b&gt;DefaultTicketService&lt;/b&gt;&lt;/p&gt;&lt;hr size=&quot;1&quot;/&gt;&lt;p style=&quot;margin:0 0 0 4px;line-height:1.6;&quot;&gt;+ sellTicket(List&amp;lt;List&amp;lt;SeatStateEntity&amp;gt;&amp;gt;, Int, Int): Unit&lt;br/&gt;+ tagTicketAsVisited(List&amp;lt;List&amp;lt;SeatStateEntity&amp;gt;&amp;gt;, Int, Int): Unit&lt;br/&gt;+ returnTicket(List&amp;lt;List&amp;lt;SeatStateEntity&amp;gt;&amp;gt;, Int, Int): Unit&lt;/p&gt;" style="verticalAlign=top;align=left;overflow=fill;fontSize=14;fontFamily=Helvetica;html=1;rounded=0;shadow=0;comic=0;labelBackgroundColor=none;strokeWidth=1;">
      <mxGeometry x="1928" y="2197" width="425" height="124" as="geometry" />
    </mxCell>
    <mxCell id="node28" parent="1" vertex="1" value="&lt;p style=&quot;margin:0px;margin-top:4px;text-align:center;&quot;&gt;&lt;b&gt;DefaultTicketsController&lt;/b&gt;&lt;/p&gt;&lt;hr size=&quot;1&quot;/&gt;&lt;p style=&quot;margin:0 0 0 4px;line-height:1.6;&quot;&gt;+ sellTicket(UUID, Int, Int): Unit&lt;br/&gt;+ returnTicket(UUID, Int, Int): Unit&lt;br/&gt;- performTicketOperation(UUID, Int, Int, (List&amp;lt;List&amp;lt;SeatStateEntity&amp;gt;&amp;gt;, Int, Int) -&amp;gt; Unit): Unit&lt;br/&gt;+ tagTicketAsVisited(UUID, Int, Int): Unit&lt;/p&gt;" style="verticalAlign=top;align=left;overflow=fill;fontSize=14;fontFamily=Helvetica;html=1;rounded=0;shadow=0;comic=0;labelBackgroundColor=none;strokeWidth=1;">
      <mxGeometry x="3254" y="2183" width="413" height="143" as="geometry" />
    </mxCell>
    <mxCell id="node2" parent="1" vertex="1" value="&lt;p style=&quot;margin:0px;margin-top:4px;text-align:center;&quot;&gt;&lt;b&gt;Di&lt;/b&gt;&lt;/p&gt;&lt;hr size=&quot;1&quot;/&gt;&lt;p style=&quot;margin:0 0 0 4px;line-height:1.6;&quot;&gt; registrationValidator: RegistrationValidator&lt;br/&gt; registrationMenu: RegistrationConsoleMenu&lt;br/&gt; filmValidator: FilmValidator&lt;br/&gt; ticketsController: TicketsController&lt;br/&gt; sessionsRepository: SessionsRepository&lt;br/&gt; filmsController: FilmsController&lt;br/&gt; inputReader: InputReader&lt;br/&gt; registrationService: RegistrationService&lt;br/&gt; filmIdService: FilmIdService&lt;br/&gt; mainMenu: MainConsoleMenu&lt;br/&gt; cinemaRepository: CinemaRepository&lt;br/&gt; filmEditMenu: FilmEditConsoleMenu&lt;br/&gt; sessionsController: SessionsController&lt;br/&gt; filmsRepository: FilmsRepository&lt;br/&gt; ticketsService: TicketService&lt;br/&gt; filmsMenu: FilmsConsoleMenu&lt;br/&gt; usersRepository: UsersRepository&lt;/p&gt;" style="verticalAlign=top;align=left;overflow=fill;fontSize=14;fontFamily=Helvetica;html=1;rounded=0;shadow=0;comic=0;labelBackgroundColor=none;strokeWidth=1;">
      <mxGeometry x="3382" y="2581" width="316" height="507" as="geometry" />
    </mxCell>
    <mxCell id="node47" parent="1" vertex="1" value="&lt;p style=&quot;margin:0px;margin-top:4px;text-align:center;&quot;&gt;&lt;b&gt;ElementAlreadyPresentException&lt;/b&gt;&lt;/p&gt;&lt;hr size=&quot;1&quot;/&gt;" style="verticalAlign=top;align=left;overflow=fill;fontSize=14;fontFamily=Helvetica;html=1;rounded=0;shadow=0;comic=0;labelBackgroundColor=none;strokeWidth=1;">
      <mxGeometry x="-233" y="1540" width="306" height="30" as="geometry" />
    </mxCell>
    <mxCell id="node41" parent="1" vertex="1" value="&lt;p style=&quot;margin:0px;margin-top:4px;text-align:center;&quot;&gt;&lt;b&gt;EntityWithId&lt;/b&gt;&lt;/p&gt;&lt;hr size=&quot;1&quot;/&gt;&lt;p style=&quot;margin:0 0 0 4px;line-height:1.6;&quot;&gt; id: UUID&lt;/p&gt;" style="verticalAlign=top;align=left;overflow=fill;fontSize=14;fontFamily=Helvetica;html=1;rounded=0;shadow=0;comic=0;labelBackgroundColor=none;strokeWidth=1;">
      <mxGeometry x="467" y="385" width="146" height="64" as="geometry" />
    </mxCell>
    <mxCell id="node42" parent="1" vertex="1" value="&lt;p style=&quot;margin:0px;margin-top:4px;text-align:center;&quot;&gt;&lt;b&gt;FilmEditConsoleMenu&lt;/b&gt;&lt;/p&gt;&lt;hr size=&quot;1&quot;/&gt;&lt;p style=&quot;margin:0 0 0 4px;line-height:1.6;&quot;&gt;- handleExceptions(() -&amp;gt; Unit): Unit&lt;br/&gt;- processEdit((UUID) -&amp;gt; Unit): Unit&lt;br/&gt;- editFilmTitle(): Unit&lt;br/&gt;- editFilmDuration(): Unit&lt;br/&gt;- editFilmActors(): Unit&lt;/p&gt;&lt;hr size=&quot;1&quot;/&gt;&lt;p style=&quot;margin:0 0 0 4px;line-height:1.6;&quot;&gt; menuItems: List&amp;lt;MenuItem&amp;gt;&lt;/p&gt;" style="verticalAlign=top;align=left;overflow=fill;fontSize=14;fontFamily=Helvetica;html=1;rounded=0;shadow=0;comic=0;labelBackgroundColor=none;strokeWidth=1;">
      <mxGeometry x="4873" y="1454" width="254" height="200" as="geometry" />
    </mxCell>
    <mxCell id="node60" parent="1" vertex="1" value="&lt;p style=&quot;margin:0px;margin-top:4px;text-align:center;&quot;&gt;&lt;i&gt;&amp;lt;&amp;lt;interface&amp;gt;&amp;gt;&lt;/i&gt;&lt;br/&gt;&lt;b&gt;FilmIdService&lt;/b&gt;&lt;/p&gt;&lt;hr size=&quot;1&quot;/&gt;&lt;p style=&quot;margin:0 0 0 4px;line-height:1.6;&quot;&gt;+ getIdFromTitle(String): UUID&lt;/p&gt;" style="verticalAlign=top;align=left;overflow=fill;fontSize=14;fontFamily=Helvetica;html=1;rounded=0;shadow=0;comic=0;labelBackgroundColor=none;strokeWidth=1;">
      <mxGeometry x="2649" y="385" width="222" height="74" as="geometry" />
    </mxCell>
    <mxCell id="node52" parent="1" vertex="1" value="&lt;p style=&quot;margin:0px;margin-top:4px;text-align:center;&quot;&gt;&lt;i&gt;&amp;lt;&amp;lt;interface&amp;gt;&amp;gt;&lt;/i&gt;&lt;br/&gt;&lt;b&gt;FilmValidator&lt;/b&gt;&lt;/p&gt;&lt;hr size=&quot;1&quot;/&gt;&lt;p style=&quot;margin:0 0 0 4px;line-height:1.6;&quot;&gt;+ validateTitle(String): Unit&lt;br/&gt;+ validateDuration(Int): Unit&lt;br/&gt;+ validateActors(List&amp;lt;String&amp;gt;): Unit&lt;/p&gt;" style="verticalAlign=top;align=left;overflow=fill;fontSize=14;fontFamily=Helvetica;html=1;rounded=0;shadow=0;comic=0;labelBackgroundColor=none;strokeWidth=1;">
      <mxGeometry x="2974" y="137" width="253" height="144" as="geometry" />
    </mxCell>
    <mxCell id="node14" parent="1" vertex="1" value="&lt;p style=&quot;margin:0px;margin-top:4px;text-align:center;&quot;&gt;&lt;b&gt;FilmsConsoleMenu&lt;/b&gt;&lt;/p&gt;&lt;hr size=&quot;1&quot;/&gt;&lt;p style=&quot;margin:0 0 0 4px;line-height:1.6;&quot;&gt;- deleteFilm(): Unit&lt;br/&gt;+ showAllFilms(): Unit&lt;br/&gt;- processEditFilmMenu(): Unit&lt;br/&gt;- addFilm(): Unit&lt;br/&gt;- handleExceptions(() -&amp;gt; Unit): Unit&lt;/p&gt;&lt;hr size=&quot;1&quot;/&gt;&lt;p style=&quot;margin:0 0 0 4px;line-height:1.6;&quot;&gt; menuItems: List&amp;lt;MenuItem&amp;gt;&lt;/p&gt;" style="verticalAlign=top;align=left;overflow=fill;fontSize=14;fontFamily=Helvetica;html=1;rounded=0;shadow=0;comic=0;labelBackgroundColor=none;strokeWidth=1;">
      <mxGeometry x="4033" y="1454" width="254" height="200" as="geometry" />
    </mxCell>
    <mxCell id="node56" parent="1" vertex="1" value="&lt;p style=&quot;margin:0px;margin-top:4px;text-align:center;&quot;&gt;&lt;i&gt;&amp;lt;&amp;lt;interface&amp;gt;&amp;gt;&lt;/i&gt;&lt;br/&gt;&lt;b&gt;FilmsController&lt;/b&gt;&lt;/p&gt;&lt;hr size=&quot;1&quot;/&gt;&lt;p style=&quot;margin:0 0 0 4px;line-height:1.6;&quot;&gt;+ deleteFilm(String): Unit&lt;/p&gt;" style="verticalAlign=top;align=left;overflow=fill;fontSize=14;fontFamily=Helvetica;html=1;rounded=0;shadow=0;comic=0;labelBackgroundColor=none;strokeWidth=1;">
      <mxGeometry x="3186" y="385" width="189" height="74" as="geometry" />
    </mxCell>
    <mxCell id="node13" parent="1" vertex="1" value="&lt;p style=&quot;margin:0px;margin-top:4px;text-align:center;&quot;&gt;&lt;b&gt;FilmsJsonRepository&lt;/b&gt;&lt;/p&gt;&lt;hr size=&quot;1&quot;/&gt;&lt;p style=&quot;margin:0 0 0 4px;line-height:1.6;&quot;&gt;+ add(FilmAddEntity): Unit&lt;br/&gt;# serialize(List&amp;lt;FilmEntity&amp;gt;): String&lt;br/&gt;# deserialize(String): List&amp;lt;FilmEntity&amp;gt;&lt;br/&gt;+ update(UUID, FilmUpdateEntity): Unit&lt;/p&gt;" style="verticalAlign=top;align=left;overflow=fill;fontSize=14;fontFamily=Helvetica;html=1;rounded=0;shadow=0;comic=0;labelBackgroundColor=none;strokeWidth=1;">
      <mxGeometry x="-218" y="2183" width="277" height="143" as="geometry" />
    </mxCell>
    <mxCell id="node59" parent="1" vertex="1" value="&lt;p style=&quot;margin:0px;margin-top:4px;text-align:center;&quot;&gt;&lt;i&gt;&amp;lt;&amp;lt;interface&amp;gt;&amp;gt;&lt;/i&gt;&lt;br/&gt;&lt;b&gt;FilmsRepository&lt;/b&gt;&lt;/p&gt;&lt;hr size=&quot;1&quot;/&gt;&lt;p style=&quot;margin:0 0 0 4px;line-height:1.6;&quot;&gt;+ getById(UUID): FilmEntity&lt;br/&gt;+ add(FilmAddEntity): Unit&lt;br/&gt;+ update(UUID, FilmUpdateEntity): Unit&lt;br/&gt;+ delete(UUID): Unit&lt;/p&gt;&lt;hr size=&quot;1&quot;/&gt;&lt;p style=&quot;margin:0 0 0 4px;line-height:1.6;&quot;&gt; all: List&amp;lt;FilmEntity&amp;gt;&lt;/p&gt;" style="verticalAlign=top;align=left;overflow=fill;fontSize=14;fontFamily=Helvetica;html=1;rounded=0;shadow=0;comic=0;labelBackgroundColor=none;strokeWidth=1;">
      <mxGeometry x="922" y="328" width="277" height="173" as="geometry" />
    </mxCell>
    <mxCell id="node0" parent="1" vertex="1" value="&lt;p style=&quot;margin:0px;margin-top:4px;text-align:center;&quot;&gt;&lt;i&gt;&amp;lt;&amp;lt;interface&amp;gt;&amp;gt;&lt;/i&gt;&lt;br/&gt;&lt;b&gt;InputReader&lt;/b&gt;&lt;/p&gt;&lt;hr size=&quot;1&quot;/&gt;&lt;p style=&quot;margin:0 0 0 4px;line-height:1.6;&quot;&gt;+ readIntUntilNotNull(): Int&lt;br/&gt;+ readStringUntilNotNull(): String&lt;br/&gt;+ readDateTimeUntilNotNull(): LocalDateTime&lt;br/&gt;+ readDoubleUntilNotNull(): Double&lt;/p&gt;" style="verticalAlign=top;align=left;overflow=fill;fontSize=14;fontFamily=Helvetica;html=1;rounded=0;shadow=0;comic=0;labelBackgroundColor=none;strokeWidth=1;">
      <mxGeometry x="5162" y="123" width="317" height="143" as="geometry" />
    </mxCell>
    <mxCell id="node34" parent="1" vertex="1" value="&lt;p style=&quot;margin:0px;margin-top:4px;text-align:center;&quot;&gt;&lt;b&gt;JsonRepository&lt;T&gt;&lt;/b&gt;&lt;/p&gt;&lt;hr size=&quot;1&quot;/&gt;&lt;p style=&quot;margin:0 0 0 4px;line-height:1.6;&quot;&gt;+ delete(UUID): Unit&lt;br/&gt;# loadDataDoActionAndSave((List&amp;lt;T&amp;gt;) -&amp;gt; Unit): Unit&lt;br/&gt;# deserialize(String): List&amp;lt;T&amp;gt;&lt;br/&gt;+ getById(UUID): T&lt;br/&gt;# serialize(List&amp;lt;T&amp;gt;): String&lt;br/&gt;# loadFromFile(): List&amp;lt;T&amp;gt;&lt;br/&gt;- saveToFile(List&amp;lt;T&amp;gt;): Unit&lt;/p&gt;&lt;hr size=&quot;1&quot;/&gt;&lt;p style=&quot;margin:0 0 0 4px;line-height:1.6;&quot;&gt; all: List&amp;lt;T&amp;gt;&lt;br/&gt; json: Json&lt;/p&gt;" style="verticalAlign=top;align=left;overflow=fill;fontSize=14;fontFamily=Helvetica;html=1;rounded=0;shadow=0;comic=0;labelBackgroundColor=none;strokeWidth=1;">
      <mxGeometry x="361" y="932" width="359" height="284" as="geometry" />
    </mxCell>
    <mxCell id="node29" parent="1" vertex="1" value="&lt;p style=&quot;margin:0px;margin-top:4px;text-align:center;&quot;&gt;&lt;b&gt;MainConsoleMenu&lt;/b&gt;&lt;/p&gt;&lt;hr size=&quot;1&quot;/&gt;&lt;p style=&quot;margin:0 0 0 4px;line-height:1.6;&quot;&gt;- processSessionsMenu(): Unit&lt;br/&gt;- processFilmsMenu(): Unit&lt;br/&gt;- handleExceptions(() -&amp;gt; Unit): Unit&lt;br/&gt;- createSessionsConsoleMenuForFilm(): SessionsConsoleMenu&lt;/p&gt;&lt;hr size=&quot;1&quot;/&gt;&lt;p style=&quot;margin:0 0 0 4px;line-height:1.6;&quot;&gt; menuItems: List&amp;lt;MenuItem&amp;gt;&lt;/p&gt;" style="verticalAlign=top;align=left;overflow=fill;fontSize=14;fontFamily=Helvetica;html=1;rounded=0;shadow=0;comic=0;labelBackgroundColor=none;strokeWidth=1;">
      <mxGeometry x="4547" y="2168" width="426" height="172" as="geometry" />
    </mxCell>
    <mxCell id="node1" parent="1" vertex="1" value="&lt;p style=&quot;margin:0px;margin-top:4px;text-align:center;&quot;&gt;&lt;b&gt;MainKt&lt;/b&gt;&lt;/p&gt;&lt;hr size=&quot;1&quot;/&gt;&lt;p style=&quot;margin:0 0 0 4px;line-height:1.6;&quot;&gt;+ main(): Unit&lt;br/&gt;- runRegistration(): Unit&lt;br/&gt;- runApp(): Unit&lt;/p&gt;" style="verticalAlign=top;align=left;overflow=fill;fontSize=14;fontFamily=Helvetica;html=1;rounded=0;shadow=0;comic=0;labelBackgroundColor=none;strokeWidth=1;">
      <mxGeometry x="4089" y="2437" width="182" height="124" as="geometry" />
    </mxCell>
    <mxCell id="node11" parent="1" vertex="1" value="&lt;p style=&quot;margin:0px;margin-top:4px;text-align:center;&quot;&gt;&lt;i&gt;&amp;lt;&amp;lt;interface&amp;gt;&amp;gt;&lt;/i&gt;&lt;br/&gt;&lt;b&gt;Menu&lt;/b&gt;&lt;/p&gt;&lt;hr size=&quot;1&quot;/&gt;&lt;p style=&quot;margin:0 0 0 4px;line-height:1.6;&quot;&gt;+ show(): Unit&lt;br/&gt;+ processInputIfNotExit(): Boolean&lt;/p&gt;" style="verticalAlign=top;align=left;overflow=fill;fontSize=14;fontFamily=Helvetica;html=1;rounded=0;shadow=0;comic=0;labelBackgroundColor=none;strokeWidth=1;">
      <mxGeometry x="4757" y="-309" width="246" height="109" as="geometry" />
    </mxCell>
    <mxCell id="node33" parent="1" vertex="1" value="&lt;p style=&quot;margin:0px;margin-top:4px;text-align:center;&quot;&gt;&lt;b&gt;NoFilmsException&lt;/b&gt;&lt;/p&gt;&lt;hr size=&quot;1&quot;/&gt;" style="verticalAlign=top;align=left;overflow=fill;fontSize=14;fontFamily=Helvetica;html=1;rounded=0;shadow=0;comic=0;labelBackgroundColor=none;strokeWidth=1;">
      <mxGeometry x="3786" y="400" width="188" height="30" as="geometry" />
    </mxCell>
    <mxCell id="node45" parent="1" vertex="1" value="&lt;p style=&quot;margin:0px;margin-top:4px;text-align:center;&quot;&gt;&lt;b&gt;NoSessionsException&lt;/b&gt;&lt;/p&gt;&lt;hr size=&quot;1&quot;/&gt;" style="verticalAlign=top;align=left;overflow=fill;fontSize=14;fontFamily=Helvetica;html=1;rounded=0;shadow=0;comic=0;labelBackgroundColor=none;strokeWidth=1;">
      <mxGeometry x="4312" y="400" width="217" height="30" as="geometry" />
    </mxCell>
    <mxCell id="node48" parent="1" vertex="1" value="&lt;p style=&quot;margin:0px;margin-top:4px;text-align:center;&quot;&gt;&lt;b&gt;RegistrationConsoleMenu&lt;/b&gt;&lt;/p&gt;&lt;hr size=&quot;1&quot;/&gt;&lt;p style=&quot;margin:0 0 0 4px;line-height:1.6;&quot;&gt;- handleExceptions(() -&amp;gt; Unit): Unit&lt;br/&gt;- processRegistration(): Unit&lt;br/&gt;- processLogin(): Unit&lt;br/&gt;- processOperationWithLoginAndPassword((String, String) -&amp;gt; Unit): Unit&lt;/p&gt;&lt;hr size=&quot;1&quot;/&gt;&lt;p style=&quot;margin:0 0 0 4px;line-height:1.6;&quot;&gt; menuItems: List&amp;lt;MenuItem&amp;gt;&lt;/p&gt;" style="verticalAlign=top;align=left;overflow=fill;fontSize=14;fontFamily=Helvetica;html=1;rounded=0;shadow=0;comic=0;labelBackgroundColor=none;strokeWidth=1;">
      <mxGeometry x="5187" y="1468" width="466" height="172" as="geometry" />
    </mxCell>
    <mxCell id="node49" parent="1" vertex="1" value="&lt;p style=&quot;margin:0px;margin-top:4px;text-align:center;&quot;&gt;&lt;i&gt;&amp;lt;&amp;lt;interface&amp;gt;&amp;gt;&lt;/i&gt;&lt;br/&gt;&lt;b&gt;RegistrationService&lt;/b&gt;&lt;/p&gt;&lt;hr size=&quot;1&quot;/&gt;&lt;p style=&quot;margin:0 0 0 4px;line-height:1.6;&quot;&gt;+ login(String, String): Unit&lt;br/&gt;+ registerUser(String, String): Unit&lt;/p&gt;" style="verticalAlign=top;align=left;overflow=fill;fontSize=14;fontFamily=Helvetica;html=1;rounded=0;shadow=0;comic=0;labelBackgroundColor=none;strokeWidth=1;">
      <mxGeometry x="6218" y="151" width="245" height="109" as="geometry" />
    </mxCell>
    <mxCell id="node53" parent="1" vertex="1" value="&lt;p style=&quot;margin:0px;margin-top:4px;text-align:center;&quot;&gt;&lt;i&gt;&amp;lt;&amp;lt;interface&amp;gt;&amp;gt;&lt;/i&gt;&lt;br/&gt;&lt;b&gt;RegistrationValidator&lt;/b&gt;&lt;/p&gt;&lt;hr size=&quot;1&quot;/&gt;&lt;p style=&quot;margin:0 0 0 4px;line-height:1.6;&quot;&gt;+ validateLogin(String): Unit&lt;br/&gt;+ validatePassword(String): Unit&lt;/p&gt;" style="verticalAlign=top;align=left;overflow=fill;fontSize=14;fontFamily=Helvetica;html=1;rounded=0;shadow=0;comic=0;labelBackgroundColor=none;strokeWidth=1;">
      <mxGeometry x="6023" y="371" width="234" height="109" as="geometry" />
    </mxCell>
    <mxCell id="node38" parent="1" vertex="1" value="&lt;p style=&quot;margin:0px;margin-top:4px;text-align:center;&quot;&gt;&lt;i&gt;&amp;lt;&amp;lt;enumeration&amp;gt;&amp;gt;&lt;/i&gt;&lt;br/&gt;&lt;b&gt;SeatStateEntity&lt;/b&gt;&lt;/p&gt;&lt;hr size=&quot;1&quot;/&gt;&lt;p style=&quot;margin:0 0 0 4px;line-height:1.6;&quot;&gt;+ valueOf(String): SeatStateEntity&lt;br/&gt;+ values(): SeatStateEntity[]&lt;/p&gt;&lt;hr size=&quot;1&quot;/&gt;&lt;p style=&quot;margin:0 0 0 4px;line-height:1.6;&quot;&gt; entries: EnumEntries&amp;lt;SeatStateEntity&amp;gt;&lt;/p&gt;" style="verticalAlign=top;align=left;overflow=fill;fontSize=14;fontFamily=Helvetica;html=1;rounded=0;shadow=0;comic=0;labelBackgroundColor=none;strokeWidth=1;">
      <mxGeometry x="3738" y="2436" width="285" height="145" as="geometry" />
    </mxCell>
    <mxCell id="node31" parent="1" vertex="1" value="&lt;p style=&quot;margin:0px;margin-top:4px;text-align:center;&quot;&gt;&lt;b&gt;SessionsConsoleMenu&lt;/b&gt;&lt;/p&gt;&lt;hr size=&quot;1&quot;/&gt;&lt;p style=&quot;margin:0 0 0 4px;line-height:1.6;&quot;&gt;- showAllSessionsForFilm(): Unit&lt;br/&gt;- readSessionDateTime(): LocalDateTime&lt;br/&gt;- addSession(): Unit&lt;br/&gt;- buyTickets(): Unit&lt;br/&gt;- deleteSession(): Unit&lt;br/&gt;- readNumberOfTicketsToReturn(): Int&lt;br/&gt;- readNumberOfVisitors(): Int&lt;br/&gt;- tagVisitor(SessionEntity, Pair&amp;lt;Int, Int&amp;gt;): Unit&lt;br/&gt;- readTicketsInfo(Int, SessionEntity): List&amp;lt;Pair&amp;lt;Int, Int&amp;gt;&amp;gt;&lt;br/&gt;- readRowForTicket(Int): Int&lt;br/&gt;- readNumberOfTicketsToSell(): Int&lt;br/&gt;- returnTickets(): Unit&lt;br/&gt;- showHallForSession(): Unit&lt;br/&gt;- handleExceptions(() -&amp;gt; Unit): Unit&lt;br/&gt;- buyTicket(SessionEntity, Pair&amp;lt;Int, Int&amp;gt;): Unit&lt;br/&gt;- showSessionSeats(SessionEntity): Unit&lt;br/&gt;- returnTicket(SessionEntity, Pair&amp;lt;Int, Int&amp;gt;): Unit&lt;br/&gt;- tagVisitors(): Unit&lt;br/&gt;- readSeatNumberForTicket(SessionEntity, Int): Int&lt;/p&gt;&lt;hr size=&quot;1&quot;/&gt;&lt;p style=&quot;margin:0 0 0 4px;line-height:1.6;&quot;&gt; sessionBySequentialId: SessionEntity&lt;br/&gt; menuItems: List&amp;lt;MenuItem&amp;gt;&lt;/p&gt;" style="verticalAlign=top;align=left;overflow=fill;fontSize=14;fontFamily=Helvetica;html=1;rounded=0;shadow=0;comic=0;labelBackgroundColor=none;strokeWidth=1;">
      <mxGeometry x="4388" y="1244" width="385" height="620" as="geometry" />
    </mxCell>
    <mxCell id="node50" parent="1" vertex="1" value="&lt;p style=&quot;margin:0px;margin-top:4px;text-align:center;&quot;&gt;&lt;i&gt;&amp;lt;&amp;lt;interface&amp;gt;&amp;gt;&lt;/i&gt;&lt;br/&gt;&lt;b&gt;SessionsController&lt;/b&gt;&lt;/p&gt;&lt;hr size=&quot;1&quot;/&gt;&lt;p style=&quot;margin:0 0 0 4px;line-height:1.6;&quot;&gt;+ addSession(SessionData): Unit&lt;/p&gt;" style="verticalAlign=top;align=left;overflow=fill;fontSize=14;fontFamily=Helvetica;html=1;rounded=0;shadow=0;comic=0;labelBackgroundColor=none;strokeWidth=1;">
      <mxGeometry x="3462" y="165" width="237" height="74" as="geometry" />
    </mxCell>
    <mxCell id="node24" parent="1" vertex="1" value="&lt;p style=&quot;margin:0px;margin-top:4px;text-align:center;&quot;&gt;&lt;b&gt;SessionsJsonRepository&lt;/b&gt;&lt;/p&gt;&lt;hr size=&quot;1&quot;/&gt;&lt;p style=&quot;margin:0 0 0 4px;line-height:1.6;&quot;&gt;+ getAllByFilmId(UUID): List&amp;lt;SessionEntity&amp;gt;&lt;br/&gt;+ add(SessionAddEntity): Unit&lt;br/&gt;# serialize(List&amp;lt;SessionEntity&amp;gt;): String&lt;br/&gt;+ update(UUID, SessionUpdateEntity): Unit&lt;br/&gt;# deserialize(String): List&amp;lt;SessionEntity&amp;gt;&lt;/p&gt;" style="verticalAlign=top;align=left;overflow=fill;fontSize=14;fontFamily=Helvetica;html=1;rounded=0;shadow=0;comic=0;labelBackgroundColor=none;strokeWidth=1;">
      <mxGeometry x="308" y="1969" width="305" height="171" as="geometry" />
    </mxCell>
    <mxCell id="node55" parent="1" vertex="1" value="&lt;p style=&quot;margin:0px;margin-top:4px;text-align:center;&quot;&gt;&lt;i&gt;&amp;lt;&amp;lt;interface&amp;gt;&amp;gt;&lt;/i&gt;&lt;br/&gt;&lt;b&gt;SessionsRepository&lt;/b&gt;&lt;/p&gt;&lt;hr size=&quot;1&quot;/&gt;&lt;p style=&quot;margin:0 0 0 4px;line-height:1.6;&quot;&gt;+ delete(UUID): Unit&lt;br/&gt;+ getAllByFilmId(UUID): List&amp;lt;SessionEntity&amp;gt;&lt;br/&gt;+ getById(UUID): SessionEntity&lt;br/&gt;+ add(SessionAddEntity): Unit&lt;br/&gt;+ update(UUID, SessionUpdateEntity): Unit&lt;/p&gt;&lt;hr size=&quot;1&quot;/&gt;&lt;p style=&quot;margin:0 0 0 4px;line-height:1.6;&quot;&gt; all: List&amp;lt;SessionEntity&amp;gt;&lt;/p&gt;" style="verticalAlign=top;align=left;overflow=fill;fontSize=14;fontFamily=Helvetica;html=1;rounded=0;shadow=0;comic=0;labelBackgroundColor=none;strokeWidth=1;">
      <mxGeometry x="1548" y="94" width="305" height="201" as="geometry" />
    </mxCell>
    <mxCell id="node25" parent="1" vertex="1" value="&lt;p style=&quot;margin:0px;margin-top:4px;text-align:center;&quot;&gt;&lt;b&gt;TicketAlreadySoldException&lt;/b&gt;&lt;/p&gt;&lt;hr size=&quot;1&quot;/&gt;" style="verticalAlign=top;align=left;overflow=fill;fontSize=14;fontFamily=Helvetica;html=1;rounded=0;shadow=0;comic=0;labelBackgroundColor=none;strokeWidth=1;">
      <mxGeometry x="1327" y="1540" width="267" height="30" as="geometry" />
    </mxCell>
    <mxCell id="node12" parent="1" vertex="1" value="&lt;p style=&quot;margin:0px;margin-top:4px;text-align:center;&quot;&gt;&lt;b&gt;TicketAlreadyUsedException&lt;/b&gt;&lt;/p&gt;&lt;hr size=&quot;1&quot;/&gt;" style="verticalAlign=top;align=left;overflow=fill;fontSize=14;fontFamily=Helvetica;html=1;rounded=0;shadow=0;comic=0;labelBackgroundColor=none;strokeWidth=1;">
      <mxGeometry x="1164" y="1060" width="273" height="30" as="geometry" />
    </mxCell>
    <mxCell id="node8" parent="1" vertex="1" value="&lt;p style=&quot;margin:0px;margin-top:4px;text-align:center;&quot;&gt;&lt;b&gt;TicketNotSoldException&lt;/b&gt;&lt;/p&gt;&lt;hr size=&quot;1&quot;/&gt;" style="verticalAlign=top;align=left;overflow=fill;fontSize=14;fontFamily=Helvetica;html=1;rounded=0;shadow=0;comic=0;labelBackgroundColor=none;strokeWidth=1;">
      <mxGeometry x="1022" y="1540" width="236" height="30" as="geometry" />
    </mxCell>
    <mxCell id="node62" parent="1" vertex="1" value="&lt;p style=&quot;margin:0px;margin-top:4px;text-align:center;&quot;&gt;&lt;i&gt;&amp;lt;&amp;lt;interface&amp;gt;&amp;gt;&lt;/i&gt;&lt;br/&gt;&lt;b&gt;TicketService&lt;/b&gt;&lt;/p&gt;&lt;hr size=&quot;1&quot;/&gt;&lt;p style=&quot;margin:0 0 0 4px;line-height:1.6;&quot;&gt;+ tagTicketAsVisited(List&amp;lt;List&amp;lt;SeatStateEntity&amp;gt;&amp;gt;, Int, Int): Unit&lt;br/&gt;+ sellTicket(List&amp;lt;List&amp;lt;SeatStateEntity&amp;gt;&amp;gt;, Int, Int): Unit&lt;br/&gt;+ returnTicket(List&amp;lt;List&amp;lt;SeatStateEntity&amp;gt;&amp;gt;, Int, Int): Unit&lt;/p&gt;" style="verticalAlign=top;align=left;overflow=fill;fontSize=14;fontFamily=Helvetica;html=1;rounded=0;shadow=0;comic=0;labelBackgroundColor=none;strokeWidth=1;">
      <mxGeometry x="2128" y="1497" width="425" height="144" as="geometry" />
    </mxCell>
    <mxCell id="node54" parent="1" vertex="1" value="&lt;p style=&quot;margin:0px;margin-top:4px;text-align:center;&quot;&gt;&lt;i&gt;&amp;lt;&amp;lt;interface&amp;gt;&amp;gt;&lt;/i&gt;&lt;br/&gt;&lt;b&gt;TicketsController&lt;/b&gt;&lt;/p&gt;&lt;hr size=&quot;1&quot;/&gt;&lt;p style=&quot;margin:0 0 0 4px;line-height:1.6;&quot;&gt;+ tagTicketAsVisited(UUID, Int, Int): Unit&lt;br/&gt;+ sellTicket(UUID, Int, Int): Unit&lt;br/&gt;+ returnTicket(UUID, Int, Int): Unit&lt;/p&gt;" style="verticalAlign=top;align=left;overflow=fill;fontSize=14;fontFamily=Helvetica;html=1;rounded=0;shadow=0;comic=0;labelBackgroundColor=none;strokeWidth=1;">
      <mxGeometry x="3239" y="1497" width="282" height="144" as="geometry" />
    </mxCell>
    <mxCell id="node21" parent="1" vertex="1" value="&lt;p style=&quot;margin:0px;margin-top:4px;text-align:center;&quot;&gt;&lt;b&gt;UUIDSerializer&lt;/b&gt;&lt;/p&gt;&lt;hr size=&quot;1&quot;/&gt;&lt;p style=&quot;margin:0 0 0 4px;line-height:1.6;&quot;&gt;+ deserialize(Decoder): UUID&lt;br/&gt;+ serialize(Encoder, UUID): Unit&lt;/p&gt;&lt;hr size=&quot;1&quot;/&gt;&lt;p style=&quot;margin:0 0 0 4px;line-height:1.6;&quot;&gt; descriptor: SerialDescriptor&lt;/p&gt;" style="verticalAlign=top;align=left;overflow=fill;fontSize=14;fontFamily=Helvetica;html=1;rounded=0;shadow=0;comic=0;labelBackgroundColor=none;strokeWidth=1;">
      <mxGeometry x="3926" y="2776" width="229" height="125" as="geometry" />
    </mxCell>
    <mxCell id="node39" parent="1" vertex="1" value="&lt;p style=&quot;margin:0px;margin-top:4px;text-align:center;&quot;&gt;&lt;b&gt;UserAlreadyRegisteredException&lt;/b&gt;&lt;/p&gt;&lt;hr size=&quot;1&quot;/&gt;" style="verticalAlign=top;align=left;overflow=fill;fontSize=14;fontFamily=Helvetica;html=1;rounded=0;shadow=0;comic=0;labelBackgroundColor=none;strokeWidth=1;">
      <mxGeometry x="5728" y="1540" width="304" height="30" as="geometry" />
    </mxCell>
    <mxCell id="node37" parent="1" vertex="1" value="&lt;p style=&quot;margin:0px;margin-top:4px;text-align:center;&quot;&gt;&lt;b&gt;UsersJsonRepository&lt;/b&gt;&lt;/p&gt;&lt;hr size=&quot;1&quot;/&gt;&lt;p style=&quot;margin:0 0 0 4px;line-height:1.6;&quot;&gt;+ add(UserAddEntity): Unit&lt;br/&gt;# deserialize(String): List&amp;lt;UserEntity&amp;gt;&lt;br/&gt;# serialize(List&amp;lt;UserEntity&amp;gt;): String&lt;/p&gt;" style="verticalAlign=top;align=left;overflow=fill;fontSize=14;fontFamily=Helvetica;html=1;rounded=0;shadow=0;comic=0;labelBackgroundColor=none;strokeWidth=1;">
      <mxGeometry x="866" y="1997" width="269" height="124" as="geometry" />
    </mxCell>
    <mxCell id="node57" parent="1" vertex="1" value="&lt;p style=&quot;margin:0px;margin-top:4px;text-align:center;&quot;&gt;&lt;i&gt;&amp;lt;&amp;lt;interface&amp;gt;&amp;gt;&lt;/i&gt;&lt;br/&gt;&lt;b&gt;UsersRepository&lt;/b&gt;&lt;/p&gt;&lt;hr size=&quot;1&quot;/&gt;&lt;p style=&quot;margin:0 0 0 4px;line-height:1.6;&quot;&gt;+ add(UserAddEntity): Unit&lt;/p&gt;&lt;hr size=&quot;1&quot;/&gt;&lt;p style=&quot;margin:0 0 0 4px;line-height:1.6;&quot;&gt; all: List&amp;lt;UserEntity&amp;gt;&lt;/p&gt;" style="verticalAlign=top;align=left;overflow=fill;fontSize=14;fontFamily=Helvetica;html=1;rounded=0;shadow=0;comic=0;labelBackgroundColor=none;strokeWidth=1;">
      <mxGeometry x="3500" y="1030" width="201" height="111" as="geometry" />
    </mxCell>
    <mxCell id="node22" parent="1" vertex="1" value="&lt;p style=&quot;margin:0px;margin-top:4px;text-align:center;&quot;&gt;&lt;i&gt;&amp;lt;&amp;lt;data&amp;gt;&amp;gt;&lt;/i&gt;&lt;br/&gt;&lt;b&gt;data  CinemaAddEntity&lt;/b&gt;&lt;/p&gt;&lt;hr size=&quot;1&quot;/&gt;&lt;p style=&quot;margin:0 0 0 4px;line-height:1.6;&quot;&gt; rowEntities: List&amp;lt;RowEntity&amp;gt;&lt;br/&gt; name: String&lt;/p&gt;" style="verticalAlign=top;align=left;overflow=fill;fontSize=14;fontFamily=Helvetica;html=1;rounded=0;shadow=0;comic=0;labelBackgroundColor=none;strokeWidth=1;">
      <mxGeometry x="1647" y="1511" width="226" height="109" as="geometry" />
    </mxCell>
    <mxCell id="node7" parent="1" vertex="1" value="&lt;p style=&quot;margin:0px;margin-top:4px;text-align:center;&quot;&gt;&lt;i&gt;&amp;lt;&amp;lt;data&amp;gt;&amp;gt;&lt;/i&gt;&lt;br/&gt;&lt;b&gt;data  CinemaEntity&lt;/b&gt;&lt;/p&gt;&lt;hr size=&quot;1&quot;/&gt;&lt;p style=&quot;margin:0 0 0 4px;line-height:1.6;&quot;&gt; rowEntities: List&amp;lt;RowEntity&amp;gt;&lt;br/&gt; name: String&lt;br/&gt; id: UUID&lt;/p&gt;" style="verticalAlign=top;align=left;overflow=fill;fontSize=14;fontFamily=Helvetica;html=1;rounded=0;shadow=0;comic=0;labelBackgroundColor=none;strokeWidth=1;">
      <mxGeometry x="709" y="1497" width="223" height="144" as="geometry" />
    </mxCell>
    <mxCell id="node4" parent="1" vertex="1" value="&lt;p style=&quot;margin:0px;margin-top:4px;text-align:center;&quot;&gt;&lt;i&gt;&amp;lt;&amp;lt;data&amp;gt;&amp;gt;&lt;/i&gt;&lt;br/&gt;&lt;b&gt;data  Config&lt;/b&gt;&lt;/p&gt;&lt;hr size=&quot;1&quot;/&gt;&lt;p style=&quot;margin:0 0 0 4px;line-height:1.6;&quot;&gt; usersJsonPath: String&lt;br/&gt; cinemaId: UUID&lt;br/&gt; sessionsJsonPath: String&lt;br/&gt; cinemaJsonPath: String&lt;br/&gt; filmsJsonPath: String&lt;/p&gt;" style="verticalAlign=top;align=left;overflow=fill;fontSize=14;fontFamily=Helvetica;html=1;rounded=0;shadow=0;comic=0;labelBackgroundColor=none;strokeWidth=1;">
      <mxGeometry x="6080" y="1469" width="200" height="171" as="geometry" />
    </mxCell>
    <mxCell id="node18" parent="1" vertex="1" value="&lt;p style=&quot;margin:0px;margin-top:4px;text-align:center;&quot;&gt;&lt;i&gt;&amp;lt;&amp;lt;data&amp;gt;&amp;gt;&lt;/i&gt;&lt;br/&gt;&lt;b&gt;data  FilmAddEntity&lt;/b&gt;&lt;/p&gt;&lt;hr size=&quot;1&quot;/&gt;&lt;p style=&quot;margin:0 0 0 4px;line-height:1.6;&quot;&gt; durationInMinutes: Int&lt;br/&gt; actors: List&amp;lt;String&amp;gt;&lt;br/&gt; title: String&lt;/p&gt;" style="verticalAlign=top;align=left;overflow=fill;fontSize=14;fontFamily=Helvetica;html=1;rounded=0;shadow=0;comic=0;labelBackgroundColor=none;strokeWidth=1;">
      <mxGeometry x="4020" y="357" width="200" height="144" as="geometry" />
    </mxCell>
    <mxCell id="node51" parent="1" vertex="1" value="&lt;p style=&quot;margin:0px;margin-top:4px;text-align:center;&quot;&gt;&lt;i&gt;&amp;lt;&amp;lt;data&amp;gt;&amp;gt;&lt;/i&gt;&lt;br/&gt;&lt;b&gt;data  FilmData&lt;/b&gt;&lt;/p&gt;&lt;hr size=&quot;1&quot;/&gt;&lt;p style=&quot;margin:0 0 0 4px;line-height:1.6;&quot;&gt; actors: List&amp;lt;String&amp;gt;&lt;br/&gt; title: String&lt;/p&gt;" style="verticalAlign=top;align=left;overflow=fill;fontSize=14;fontFamily=Helvetica;html=1;rounded=0;shadow=0;comic=0;labelBackgroundColor=none;strokeWidth=1;">
      <mxGeometry x="3137" y="2791" width="167" height="109" as="geometry" />
    </mxCell>
    <mxCell id="node23" parent="1" vertex="1" value="&lt;p style=&quot;margin:0px;margin-top:4px;text-align:center;&quot;&gt;&lt;i&gt;&amp;lt;&amp;lt;data&amp;gt;&amp;gt;&lt;/i&gt;&lt;br/&gt;&lt;b&gt;data  FilmEntity&lt;/b&gt;&lt;/p&gt;&lt;hr size=&quot;1&quot;/&gt;&lt;p style=&quot;margin:0 0 0 4px;line-height:1.6;&quot;&gt; id: UUID&lt;br/&gt; title: String&lt;br/&gt; durationInMinutes: Int&lt;br/&gt; actors: List&amp;lt;String&amp;gt;&lt;/p&gt;" style="verticalAlign=top;align=left;overflow=fill;fontSize=14;fontFamily=Helvetica;html=1;rounded=0;shadow=0;comic=0;labelBackgroundColor=none;strokeWidth=1;">
      <mxGeometry x="11" y="1003" width="179" height="143" as="geometry" />
    </mxCell>
    <mxCell id="node58" parent="1" vertex="1" value="&lt;p style=&quot;margin:0px;margin-top:4px;text-align:center;&quot;&gt;&lt;i&gt;&amp;lt;&amp;lt;data&amp;gt;&amp;gt;&lt;/i&gt;&lt;br/&gt;&lt;b&gt;data  FilmOutput&lt;/b&gt;&lt;/p&gt;&lt;hr size=&quot;1&quot;/&gt;&lt;p style=&quot;margin:0 0 0 4px;line-height:1.6;&quot;&gt; durationInMinutes: Int&lt;br/&gt; actors: List&amp;lt;String&amp;gt;&lt;br/&gt; title: String&lt;/p&gt;" style="verticalAlign=top;align=left;overflow=fill;fontSize=14;fontFamily=Helvetica;html=1;rounded=0;shadow=0;comic=0;labelBackgroundColor=none;strokeWidth=1;">
      <mxGeometry x="3911" y="137" width="179" height="144" as="geometry" />
    </mxCell>
    <mxCell id="node6" parent="1" vertex="1" value="&lt;p style=&quot;margin:0px;margin-top:4px;text-align:center;&quot;&gt;&lt;i&gt;&amp;lt;&amp;lt;data&amp;gt;&amp;gt;&lt;/i&gt;&lt;br/&gt;&lt;b&gt;data  FilmUpdateEntity&lt;/b&gt;&lt;/p&gt;&lt;hr size=&quot;1&quot;/&gt;&lt;p style=&quot;margin:0 0 0 4px;line-height:1.6;&quot;&gt; actors: List&amp;lt;String&amp;gt;?&lt;br/&gt; durationInMinutes: Int?&lt;br/&gt; title: String?&lt;/p&gt;" style="verticalAlign=top;align=left;overflow=fill;fontSize=14;fontFamily=Helvetica;html=1;rounded=0;shadow=0;comic=0;labelBackgroundColor=none;strokeWidth=1;">
      <mxGeometry x="4988" y="357" width="225" height="144" as="geometry" />
    </mxCell>
    <mxCell id="node16" parent="1" vertex="1" value="&lt;p style=&quot;margin:0px;margin-top:4px;text-align:center;&quot;&gt;&lt;i&gt;&amp;lt;&amp;lt;data&amp;gt;&amp;gt;&lt;/i&gt;&lt;br/&gt;&lt;b&gt;data  MenuItem&lt;/b&gt;&lt;/p&gt;&lt;hr size=&quot;1&quot;/&gt;&lt;p style=&quot;margin:0 0 0 4px;line-height:1.6;&quot;&gt; action: () -&amp;gt; Unit&lt;br/&gt; title: String&lt;/p&gt;" style="verticalAlign=top;align=left;overflow=fill;fontSize=14;fontFamily=Helvetica;html=1;rounded=0;shadow=0;comic=0;labelBackgroundColor=none;strokeWidth=1;">
      <mxGeometry x="4515" y="151" width="171" height="109" as="geometry" />
    </mxCell>
    <mxCell id="node40" parent="1" vertex="1" value="&lt;p style=&quot;margin:0px;margin-top:4px;text-align:center;&quot;&gt;&lt;i&gt;&amp;lt;&amp;lt;data&amp;gt;&amp;gt;&lt;/i&gt;&lt;br/&gt;&lt;b&gt;data  RowEntity&lt;/b&gt;&lt;/p&gt;&lt;hr size=&quot;1&quot;/&gt;&lt;p style=&quot;margin:0 0 0 4px;line-height:1.6;&quot;&gt; seats: Int&lt;/p&gt;" style="verticalAlign=top;align=left;overflow=fill;fontSize=14;fontFamily=Helvetica;html=1;rounded=0;shadow=0;comic=0;labelBackgroundColor=none;strokeWidth=1;">
      <mxGeometry x="815" y="165" width="171" height="74" as="geometry" />
    </mxCell>
    <mxCell id="node17" parent="1" vertex="1" value="&lt;p style=&quot;margin:0px;margin-top:4px;text-align:center;&quot;&gt;&lt;i&gt;&amp;lt;&amp;lt;data&amp;gt;&amp;gt;&lt;/i&gt;&lt;br/&gt;&lt;b&gt;data  SessionAddEntity&lt;/b&gt;&lt;/p&gt;&lt;hr size=&quot;1&quot;/&gt;&lt;p style=&quot;margin:0 0 0 4px;line-height:1.6;&quot;&gt; ticketPrice: Double&lt;br/&gt; filmId: UUID&lt;br/&gt; dateTime: LocalDateTime&lt;br/&gt; seats: List&amp;lt;List&amp;lt;SeatStateEntity&amp;gt;&amp;gt;&lt;/p&gt;" style="verticalAlign=top;align=left;overflow=fill;fontSize=14;fontFamily=Helvetica;html=1;rounded=0;shadow=0;comic=0;labelBackgroundColor=none;strokeWidth=1;">
      <mxGeometry x="2930" y="1483" width="261" height="143" as="geometry" />
    </mxCell>
    <mxCell id="node61" parent="1" vertex="1" value="&lt;p style=&quot;margin:0px;margin-top:4px;text-align:center;&quot;&gt;&lt;i&gt;&amp;lt;&amp;lt;data&amp;gt;&amp;gt;&lt;/i&gt;&lt;br/&gt;&lt;b&gt;data  SessionData&lt;/b&gt;&lt;/p&gt;&lt;hr size=&quot;1&quot;/&gt;&lt;p style=&quot;margin:0 0 0 4px;line-height:1.6;&quot;&gt; ticketPrice: Double&lt;br/&gt; filmId: UUID&lt;br/&gt; dateTime: LocalDateTime&lt;/p&gt;" style="verticalAlign=top;align=left;overflow=fill;fontSize=14;fontFamily=Helvetica;html=1;rounded=0;shadow=0;comic=0;labelBackgroundColor=none;strokeWidth=1;">
      <mxGeometry x="4658" y="357" width="204" height="144" as="geometry" />
    </mxCell>
    <mxCell id="node20" parent="1" vertex="1" value="&lt;p style=&quot;margin:0px;margin-top:4px;text-align:center;&quot;&gt;&lt;i&gt;&amp;lt;&amp;lt;data&amp;gt;&amp;gt;&lt;/i&gt;&lt;br/&gt;&lt;b&gt;data  SessionEntity&lt;/b&gt;&lt;/p&gt;&lt;hr size=&quot;1&quot;/&gt;&lt;p style=&quot;margin:0 0 0 4px;line-height:1.6;&quot;&gt; ticketPrice: Double&lt;br/&gt; filmId: UUID&lt;br/&gt; id: UUID&lt;br/&gt; dateTime: LocalDateTime&lt;br/&gt; seats: List&amp;lt;List&amp;lt;SeatStateEntity&amp;gt;&amp;gt;&lt;/p&gt;" style="verticalAlign=top;align=left;overflow=fill;fontSize=14;fontFamily=Helvetica;html=1;rounded=0;shadow=0;comic=0;labelBackgroundColor=none;strokeWidth=1;">
      <mxGeometry x="150" y="1469" width="261" height="171" as="geometry" />
    </mxCell>
    <mxCell id="node9" parent="1" vertex="1" value="&lt;p style=&quot;margin:0px;margin-top:4px;text-align:center;&quot;&gt;&lt;i&gt;&amp;lt;&amp;lt;data&amp;gt;&amp;gt;&lt;/i&gt;&lt;br/&gt;&lt;b&gt;data  SessionUpdateEntity&lt;/b&gt;&lt;/p&gt;&lt;hr size=&quot;1&quot;/&gt;&lt;p style=&quot;margin:0 0 0 4px;line-height:1.6;&quot;&gt; ticketPrice: Double?&lt;br/&gt; seats: List&amp;lt;List&amp;lt;SeatStateEntity&amp;gt;&amp;gt;?&lt;br/&gt; dateTime: LocalDateTime?&lt;/p&gt;" style="verticalAlign=top;align=left;overflow=fill;fontSize=14;fontFamily=Helvetica;html=1;rounded=0;shadow=0;comic=0;labelBackgroundColor=none;strokeWidth=1;">
      <mxGeometry x="3666" y="1497" width="268" height="144" as="geometry" />
    </mxCell>
    <mxCell id="node10" parent="1" vertex="1" value="&lt;p style=&quot;margin:0px;margin-top:4px;text-align:center;&quot;&gt;&lt;i&gt;&amp;lt;&amp;lt;data&amp;gt;&amp;gt;&lt;/i&gt;&lt;br/&gt;&lt;b&gt;data  UserAddEntity&lt;/b&gt;&lt;/p&gt;&lt;hr size=&quot;1&quot;/&gt;&lt;p style=&quot;margin:0 0 0 4px;line-height:1.6;&quot;&gt; password: String&lt;br/&gt; login: String&lt;/p&gt;" style="verticalAlign=top;align=left;overflow=fill;fontSize=14;fontFamily=Helvetica;html=1;rounded=0;shadow=0;comic=0;labelBackgroundColor=none;strokeWidth=1;">
      <mxGeometry x="5598" y="1031" width="205" height="109" as="geometry" />
    </mxCell>
    <mxCell id="node19" parent="1" vertex="1" value="&lt;p style=&quot;margin:0px;margin-top:4px;text-align:center;&quot;&gt;&lt;i&gt;&amp;lt;&amp;lt;data&amp;gt;&amp;gt;&lt;/i&gt;&lt;br/&gt;&lt;b&gt;data  UserEntity&lt;/b&gt;&lt;/p&gt;&lt;hr size=&quot;1&quot;/&gt;&lt;p style=&quot;margin:0 0 0 4px;line-height:1.6;&quot;&gt; password: String&lt;br/&gt; id: UUID&lt;br/&gt; login: String&lt;/p&gt;" style="verticalAlign=top;align=left;overflow=fill;fontSize=14;fontFamily=Helvetica;html=1;rounded=0;shadow=0;comic=0;labelBackgroundColor=none;strokeWidth=1;">
      <mxGeometry x="913" y="1017" width="174" height="144" as="geometry" />
    </mxCell>
    <mxCell id="edge114" edge="1" value="" parent="1" source="node15" target="node63" style="html=1;rounded=1;edgeStyle=orthogonalEdgeStyle;dashed=1;startArrow=none;endArrow=block;endSize=12;strokeColor=#008200;exitX=0.833;exitY=0.000;exitDx=0;exitDy=0;entryX=0.250;entryY=1.000;entryDx=0;entryDy=0;">
      <mxGeometry width="50" height="50" relative="1" as="geometry">
        <Array as="points">
          <mxPoint x="835" y="1734" />
          <mxPoint x="1904" y="1734" />
        </Array>
      </mxGeometry>
    </mxCell>
    <mxCell id="edge11" edge="1" value="" parent="1" source="node15" target="node34" style="html=1;rounded=1;edgeStyle=orthogonalEdgeStyle;dashed=0;startArrow=none;endArrow=block;endSize=12;strokeColor=#000082;exitX=0.167;exitY=0.000;exitDx=0;exitDy=0;entryX=0.250;entryY=1.000;entryDx=0;entryDy=0;">
      <mxGeometry width="50" height="50" relative="1" as="geometry">
        <Array as="points">
          <mxPoint x="645" y="1914" />
          <mxPoint x="460" y="1914" />
          <mxPoint x="460" y="1254" />
          <mxPoint x="450" y="1254" />
        </Array>
      </mxGeometry>
    </mxCell>
    <mxCell id="edge21" edge="1" value="" parent="1" source="node15" target="node34" style="html=1;rounded=1;edgeStyle=orthogonalEdgeStyle;dashed=1;startArrow=none;endArrow=openThin;endSize=12;strokeColor=#595959;exitX=0.500;exitY=0.000;exitDx=0;exitDy=0;entryX=0.750;entryY=1.000;entryDx=0;entryDy=0;">
      <mxGeometry width="50" height="50" relative="1" as="geometry">
        <Array as="points">
          <mxPoint x="740" y="2174" />
          <mxPoint x="820" y="2174" />
          <mxPoint x="820" y="1734" />
          <mxPoint x="620" y="1734" />
          <mxPoint x="620" y="1254" />
          <mxPoint x="630" y="1254" />
        </Array>
      </mxGeometry>
    </mxCell>
    <mxCell id="label128" parent="edge21" vertex="1" connectable="0" value="«create»" style="edgeLabel;resizable=0;html=1;align=left;verticalAlign=top;strokeColor=default;">
      <mxGeometry x="768" y="1725" as="geometry" />
    </mxCell>
    <mxCell id="edge17" edge="1" value="" parent="1" source="node15" target="node7" style="html=1;rounded=1;edgeStyle=orthogonalEdgeStyle;dashed=1;startArrow=none;endArrow=openThin;endSize=12;strokeColor=#595959;exitX=0.500;exitY=0.000;exitDx=0;exitDy=0;entryX=0.500;entryY=1.000;entryDx=0;entryDy=0;">
      <mxGeometry width="50" height="50" relative="1" as="geometry">
        <Array as="points">
          <mxPoint x="740" y="2174" />
          <mxPoint x="820" y="2174" />
        </Array>
      </mxGeometry>
    </mxCell>
    <mxCell id="label104" parent="edge17" vertex="1" connectable="0" value="«create»" style="edgeLabel;resizable=0;html=1;align=left;verticalAlign=top;strokeColor=default;">
      <mxGeometry x="754" y="2155" as="geometry" />
    </mxCell>
    <mxCell id="edge35" edge="1" value="" parent="1" source="node3" target="node4" style="html=1;rounded=1;edgeStyle=orthogonalEdgeStyle;dashed=0;startArrow=diamondThinstartSize=12;endArrow=openThin;endSize=12;strokeColor=#595959;exitX=0.500;exitY=0.001;exitDx=0;exitDy=0;entryX=0.500;entryY=1.000;entryDx=0;entryDy=0;">
      <mxGeometry width="50" height="50" relative="1" as="geometry">
        <Array as="points" />
      </mxGeometry>
    </mxCell>
    <mxCell id="label210" parent="edge35" vertex="1" connectable="0" value="1" style="edgeLabel;resizable=0;html=1;align=left;verticalAlign=top;strokeColor=default;">
      <mxGeometry x="6168" y="2201" as="geometry" />
    </mxCell>
    <mxCell id="label214" parent="edge35" vertex="1" connectable="0" value="1" style="edgeLabel;resizable=0;html=1;align=left;verticalAlign=top;strokeColor=default;">
      <mxGeometry x="6168" y="1645" as="geometry" />
    </mxCell>
    <mxCell id="label215" parent="edge35" vertex="1" connectable="0" value="config" style="edgeLabel;resizable=0;html=1;align=left;verticalAlign=top;strokeColor=default;">
      <mxGeometry x="6180" y="1645" as="geometry" />
    </mxCell>
    <mxCell id="edge0" edge="1" value="" parent="1" source="node5" target="node0" style="html=1;rounded=1;edgeStyle=orthogonalEdgeStyle;dashed=1;startArrow=none;endArrow=block;endSize=12;strokeColor=#008200;exitX=0.500;exitY=0.000;exitDx=0;exitDy=0;entryX=0.750;entryY=1.000;entryDx=0;entryDy=0;">
      <mxGeometry width="50" height="50" relative="1" as="geometry">
        <Array as="points">
          <mxPoint x="6000" y="1954" />
          <mxPoint x="6060" y="1954" />
          <mxPoint x="6060" y="554" />
          <mxPoint x="5399" y="554" />
        </Array>
      </mxGeometry>
    </mxCell>
    <mxCell id="edge15" edge="1" value="" parent="1" source="node36" target="node11" style="html=1;rounded=1;edgeStyle=orthogonalEdgeStyle;dashed=1;startArrow=none;endArrow=block;endSize=12;strokeColor=#008200;exitX=0.500;exitY=0.000;exitDx=0;exitDy=0;entryX=0.500;entryY=1.001;entryDx=0;entryDy=0;">
      <mxGeometry width="50" height="50" relative="1" as="geometry">
        <Array as="points" />
      </mxGeometry>
    </mxCell>
    <mxCell id="edge88" edge="1" value="" parent="1" source="node26" target="node60" style="html=1;rounded=1;edgeStyle=orthogonalEdgeStyle;dashed=1;startArrow=none;endArrow=block;endSize=12;strokeColor=#008200;exitX=0.250;exitY=0.001;exitDx=0;exitDy=0;entryX=0.250;entryY=1.001;entryDx=0;entryDy=0;">
      <mxGeometry width="50" height="50" relative="1" as="geometry">
        <Array as="points" />
      </mxGeometry>
    </mxCell>
    <mxCell id="edge113" edge="1" value="" parent="1" source="node26" target="node59" style="html=1;rounded=1;edgeStyle=orthogonalEdgeStyle;dashed=0;startArrow=diamondThinstartSize=12;endArrow=openThin;endSize=12;strokeColor=#595959;exitX=0.750;exitY=0.001;exitDx=0;exitDy=0;entryX=0.750;entryY=1.000;entryDx=0;entryDy=0;">
      <mxGeometry width="50" height="50" relative="1" as="geometry">
        <Array as="points">
          <mxPoint x="2816" y="894" />
          <mxPoint x="3320" y="894" />
          <mxPoint x="3320" y="534" />
          <mxPoint x="1129" y="534" />
        </Array>
      </mxGeometry>
    </mxCell>
    <mxCell id="label678" parent="edge113" vertex="1" connectable="0" value="1" style="edgeLabel;resizable=0;html=1;align=left;verticalAlign=top;strokeColor=default;">
      <mxGeometry x="2804" y="1501" as="geometry" />
    </mxCell>
    <mxCell id="label682" parent="edge113" vertex="1" connectable="0" value="1" style="edgeLabel;resizable=0;html=1;align=left;verticalAlign=top;strokeColor=default;">
      <mxGeometry x="1077" y="506" as="geometry" />
    </mxCell>
    <mxCell id="label683" parent="edge113" vertex="1" connectable="0" value="filmsRepository" style="edgeLabel;resizable=0;html=1;align=left;verticalAlign=top;strokeColor=default;">
      <mxGeometry x="1129" y="491" as="geometry" />
    </mxCell>
    <mxCell id="edge116" edge="1" value="" parent="1" source="node27" target="node52" style="html=1;rounded=1;edgeStyle=orthogonalEdgeStyle;dashed=1;startArrow=none;endArrow=block;endSize=12;strokeColor=#008200;exitX=0.500;exitY=0.000;exitDx=0;exitDy=0;entryX=0.250;entryY=1.000;entryDx=0;entryDy=0;">
      <mxGeometry width="50" height="50" relative="1" as="geometry">
        <Array as="points">
          <mxPoint x="2620" y="574" />
          <mxPoint x="3037" y="574" />
        </Array>
      </mxGeometry>
    </mxCell>
    <mxCell id="edge95" edge="1" value="" parent="1" source="node43" target="node60" style="html=1;rounded=1;edgeStyle=orthogonalEdgeStyle;dashed=0;startArrow=diamondThinstartSize=12;endArrow=openThin;endSize=12;strokeColor=#595959;exitX=0.750;exitY=0.001;exitDx=0;exitDy=0;entryX=0.750;entryY=1.001;entryDx=0;entryDy=0;">
      <mxGeometry width="50" height="50" relative="1" as="geometry">
        <Array as="points">
          <mxPoint x="3276" y="1014" />
          <mxPoint x="3280" y="1014" />
          <mxPoint x="3280" y="994" />
          <mxPoint x="3360" y="994" />
          <mxPoint x="3360" y="494" />
          <mxPoint x="2816" y="494" />
        </Array>
      </mxGeometry>
    </mxCell>
    <mxCell id="label570" parent="edge95" vertex="1" connectable="0" value="1" style="edgeLabel;resizable=0;html=1;align=left;verticalAlign=top;strokeColor=default;">
      <mxGeometry x="3314" y="976" as="geometry" />
    </mxCell>
    <mxCell id="label574" parent="edge95" vertex="1" connectable="0" value="1" style="edgeLabel;resizable=0;html=1;align=left;verticalAlign=top;strokeColor=default;">
      <mxGeometry x="2946" y="476" as="geometry" />
    </mxCell>
    <mxCell id="label575" parent="edge95" vertex="1" connectable="0" value="filmIdService" style="edgeLabel;resizable=0;html=1;align=left;verticalAlign=top;strokeColor=default;">
      <mxGeometry x="2816" y="485" as="geometry" />
    </mxCell>
    <mxCell id="edge107" edge="1" value="" parent="1" source="node43" target="node56" style="html=1;rounded=1;edgeStyle=orthogonalEdgeStyle;dashed=1;startArrow=none;endArrow=block;endSize=12;strokeColor=#008200;exitX=0.250;exitY=0.001;exitDx=0;exitDy=0;entryX=0.250;entryY=1.001;entryDx=0;entryDy=0;">
      <mxGeometry width="50" height="50" relative="1" as="geometry">
        <Array as="points">
          <mxPoint x="3164" y="1014" />
          <mxPoint x="3233" y="1014" />
        </Array>
      </mxGeometry>
    </mxCell>
    <mxCell id="edge89" edge="1" value="" parent="1" source="node43" target="node59" style="html=1;rounded=1;edgeStyle=orthogonalEdgeStyle;dashed=0;startArrow=diamondThinstartSize=12;endArrow=openThin;endSize=12;strokeColor=#595959;exitX=0.750;exitY=0.001;exitDx=0;exitDy=0;entryX=0.750;entryY=1.000;entryDx=0;entryDy=0;">
      <mxGeometry width="50" height="50" relative="1" as="geometry">
        <Array as="points">
          <mxPoint x="3276" y="1014" />
          <mxPoint x="3280" y="1014" />
          <mxPoint x="3280" y="934" />
          <mxPoint x="3320" y="934" />
          <mxPoint x="3320" y="534" />
          <mxPoint x="1129" y="534" />
        </Array>
      </mxGeometry>
    </mxCell>
    <mxCell id="label534" parent="edge89" vertex="1" connectable="0" value="1" style="edgeLabel;resizable=0;html=1;align=left;verticalAlign=top;strokeColor=default;">
      <mxGeometry x="3268" y="945" as="geometry" />
    </mxCell>
    <mxCell id="label538" parent="edge89" vertex="1" connectable="0" value="1" style="edgeLabel;resizable=0;html=1;align=left;verticalAlign=top;strokeColor=default;">
      <mxGeometry x="1077" y="525" as="geometry" />
    </mxCell>
    <mxCell id="label539" parent="edge89" vertex="1" connectable="0" value="filmsRepository" style="edgeLabel;resizable=0;html=1;align=left;verticalAlign=top;strokeColor=default;">
      <mxGeometry x="1129" y="525" as="geometry" />
    </mxCell>
    <mxCell id="edge118" edge="1" value="" parent="1" source="node43" target="node55" style="html=1;rounded=1;edgeStyle=orthogonalEdgeStyle;dashed=0;startArrow=diamondThinstartSize=12;endArrow=openThin;endSize=12;strokeColor=#595959;exitX=0.750;exitY=0.001;exitDx=0;exitDy=0;entryX=0.750;entryY=1.000;entryDx=0;entryDy=0;">
      <mxGeometry width="50" height="50" relative="1" as="geometry">
        <Array as="points">
          <mxPoint x="3276" y="1014" />
          <mxPoint x="3280" y="1014" />
          <mxPoint x="3280" y="454" />
          <mxPoint x="1776" y="454" />
        </Array>
      </mxGeometry>
    </mxCell>
    <mxCell id="label708" parent="edge118" vertex="1" connectable="0" value="1" style="edgeLabel;resizable=0;html=1;align=left;verticalAlign=top;strokeColor=default;">
      <mxGeometry x="3268" y="1005" as="geometry" />
    </mxCell>
    <mxCell id="label712" parent="edge118" vertex="1" connectable="0" value="1" style="edgeLabel;resizable=0;html=1;align=left;verticalAlign=top;strokeColor=default;">
      <mxGeometry x="1724" y="300" as="geometry" />
    </mxCell>
    <mxCell id="label713" parent="edge118" vertex="1" connectable="0" value="sessionsRepository" style="edgeLabel;resizable=0;html=1;align=left;verticalAlign=top;strokeColor=default;">
      <mxGeometry x="1776" y="300" as="geometry" />
    </mxCell>
    <mxCell id="edge97" edge="1" value="" parent="1" source="node35" target="node49" style="html=1;rounded=1;edgeStyle=orthogonalEdgeStyle;dashed=1;startArrow=none;endArrow=block;endSize=12;strokeColor=#008200;exitX=0.833;exitY=0.000;exitDx=0;exitDy=0;entryX=0.750;entryY=1.001;entryDx=0;entryDy=0;">
      <mxGeometry width="50" height="50" relative="1" as="geometry">
        <Array as="points">
          <mxPoint x="5826" y="1934" />
          <mxPoint x="6500" y="1934" />
          <mxPoint x="6500" y="1014" />
          <mxPoint x="6401" y="1014" />
        </Array>
      </mxGeometry>
    </mxCell>
    <mxCell id="edge81" edge="1" value="" parent="1" source="node35" target="node39" style="html=1;rounded=1;edgeStyle=orthogonalEdgeStyle;dashed=1;startArrow=none;endArrow=openThin;endSize=12;strokeColor=#595959;exitX=0.500;exitY=0.000;exitDx=0;exitDy=0;entryX=0.500;entryY=1.001;entryDx=0;entryDy=0;">
      <mxGeometry width="50" height="50" relative="1" as="geometry">
        <Array as="points">
          <mxPoint x="5740" y="1594" />
          <mxPoint x="5880" y="1594" />
        </Array>
      </mxGeometry>
    </mxCell>
    <mxCell id="label488" parent="edge81" vertex="1" connectable="0" value="«create»" style="edgeLabel;resizable=0;html=1;align=left;verticalAlign=top;strokeColor=default;">
      <mxGeometry x="5788" y="1572" as="geometry" />
    </mxCell>
    <mxCell id="edge115" edge="1" value="" parent="1" source="node35" target="node57" style="html=1;rounded=1;edgeStyle=orthogonalEdgeStyle;dashed=0;startArrow=diamondThinstartSize=12;endArrow=openThin;endSize=12;strokeColor=#595959;exitX=0.167;exitY=0.000;exitDx=0;exitDy=0;entryX=0.750;entryY=1.001;entryDx=0;entryDy=0;">
      <mxGeometry width="50" height="50" relative="1" as="geometry">
        <Array as="points">
          <mxPoint x="5654" y="1914" />
          <mxPoint x="3650" y="1914" />
        </Array>
      </mxGeometry>
    </mxCell>
    <mxCell id="label690" parent="edge115" vertex="1" connectable="0" value="1" style="edgeLabel;resizable=0;html=1;align=left;verticalAlign=top;strokeColor=default;">
      <mxGeometry x="5642" y="2173" as="geometry" />
    </mxCell>
    <mxCell id="label694" parent="edge115" vertex="1" connectable="0" value="1" style="edgeLabel;resizable=0;html=1;align=left;verticalAlign=top;strokeColor=default;">
      <mxGeometry x="3638" y="1124" as="geometry" />
    </mxCell>
    <mxCell id="label695" parent="edge115" vertex="1" connectable="0" value="usersRepository" style="edgeLabel;resizable=0;html=1;align=left;verticalAlign=top;strokeColor=default;">
      <mxGeometry x="3650" y="1124" as="geometry" />
    </mxCell>
    <mxCell id="edge46" edge="1" value="" parent="1" source="node35" target="node10" style="html=1;rounded=1;edgeStyle=orthogonalEdgeStyle;dashed=1;startArrow=none;endArrow=openThin;endSize=12;strokeColor=#595959;exitX=0.500;exitY=0.000;exitDx=0;exitDy=0;entryX=0.500;entryY=1.000;entryDx=0;entryDy=0;">
      <mxGeometry width="50" height="50" relative="1" as="geometry">
        <Array as="points">
          <mxPoint x="5740" y="1594" />
          <mxPoint x="5700" y="1594" />
        </Array>
      </mxGeometry>
    </mxCell>
    <mxCell id="label278" parent="edge46" vertex="1" connectable="0" value="«create»" style="edgeLabel;resizable=0;html=1;align=left;verticalAlign=top;strokeColor=default;">
      <mxGeometry x="5674" y="1575" as="geometry" />
    </mxCell>
    <mxCell id="edge86" edge="1" value="" parent="1" source="node30" target="node53" style="html=1;rounded=1;edgeStyle=orthogonalEdgeStyle;dashed=1;startArrow=none;endArrow=block;endSize=12;strokeColor=#008200;exitX=0.500;exitY=0.000;exitDx=0;exitDy=0;entryX=0.750;entryY=1.000;entryDx=0;entryDy=0;">
      <mxGeometry width="50" height="50" relative="1" as="geometry">
        <Array as="points">
          <mxPoint x="6340" y="994" />
          <mxPoint x="6199" y="994" />
        </Array>
      </mxGeometry>
    </mxCell>
    <mxCell id="edge105" edge="1" value="" parent="1" source="node44" target="node63" style="html=1;rounded=1;edgeStyle=orthogonalEdgeStyle;dashed=0;startArrow=diamondThinstartSize=12;endArrow=openThin;endSize=12;strokeColor=#595959;exitX=0.500;exitY=0.001;exitDx=0;exitDy=0;entryX=0.750;entryY=1.000;entryDx=0;entryDy=0;">
      <mxGeometry width="50" height="50" relative="1" as="geometry">
        <Array as="points">
          <mxPoint x="2460" y="1634" />
          <mxPoint x="2016" y="1634" />
        </Array>
      </mxGeometry>
    </mxCell>
    <mxCell id="label630" parent="edge105" vertex="1" connectable="0" value="1" style="edgeLabel;resizable=0;html=1;align=left;verticalAlign=top;strokeColor=default;">
      <mxGeometry x="2448" y="2001" as="geometry" />
    </mxCell>
    <mxCell id="label634" parent="edge105" vertex="1" connectable="0" value="1" style="edgeLabel;resizable=0;html=1;align=left;verticalAlign=top;strokeColor=default;">
      <mxGeometry x="2004" y="1152" as="geometry" />
    </mxCell>
    <mxCell id="label635" parent="edge105" vertex="1" connectable="0" value="cinemaRepository" style="edgeLabel;resizable=0;html=1;align=left;verticalAlign=top;strokeColor=default;">
      <mxGeometry x="2016" y="1152" as="geometry" />
    </mxCell>
    <mxCell id="edge87" edge="1" value="" parent="1" source="node44" target="node50" style="html=1;rounded=1;edgeStyle=orthogonalEdgeStyle;dashed=1;startArrow=none;endArrow=block;endSize=12;strokeColor=#008200;exitX=0.167;exitY=0.001;exitDx=0;exitDy=0;entryX=0.250;entryY=1.001;entryDx=0;entryDy=0;">
      <mxGeometry width="50" height="50" relative="1" as="geometry">
        <Array as="points">
          <mxPoint x="2376" y="1994" />
          <mxPoint x="2100" y="1994" />
          <mxPoint x="2100" y="974" />
          <mxPoint x="3521" y="974" />
        </Array>
      </mxGeometry>
    </mxCell>
    <mxCell id="edge106" edge="1" value="" parent="1" source="node44" target="node55" style="html=1;rounded=1;edgeStyle=orthogonalEdgeStyle;dashed=0;startArrow=diamondThinstartSize=12;endArrow=openThin;endSize=12;strokeColor=#595959;exitX=0.500;exitY=0.001;exitDx=0;exitDy=0;entryX=0.750;entryY=1.000;entryDx=0;entryDy=0;">
      <mxGeometry width="50" height="50" relative="1" as="geometry">
        <Array as="points">
          <mxPoint x="2460" y="1634" />
          <mxPoint x="2580" y="1634" />
          <mxPoint x="2580" y="554" />
          <mxPoint x="3280" y="554" />
          <mxPoint x="3280" y="454" />
          <mxPoint x="1776" y="454" />
        </Array>
      </mxGeometry>
    </mxCell>
    <mxCell id="label636" parent="edge106" vertex="1" connectable="0" value="1" style="edgeLabel;resizable=0;html=1;align=left;verticalAlign=top;strokeColor=default;">
      <mxGeometry x="2448" y="1918" as="geometry" />
    </mxCell>
    <mxCell id="label640" parent="edge106" vertex="1" connectable="0" value="1" style="edgeLabel;resizable=0;html=1;align=left;verticalAlign=top;strokeColor=default;">
      <mxGeometry x="1764" y="325" as="geometry" />
    </mxCell>
    <mxCell id="label641" parent="edge106" vertex="1" connectable="0" value="sessionsRepository" style="edgeLabel;resizable=0;html=1;align=left;verticalAlign=top;strokeColor=default;">
      <mxGeometry x="1816" y="285" as="geometry" />
    </mxCell>
    <mxCell id="edge43" edge="1" value="" parent="1" source="node44" target="node17" style="html=1;rounded=1;edgeStyle=orthogonalEdgeStyle;dashed=1;startArrow=none;endArrow=openThin;endSize=12;strokeColor=#595959;exitX=0.833;exitY=0.001;exitDx=0;exitDy=0;entryX=0.500;entryY=1.000;entryDx=0;entryDy=0;">
      <mxGeometry width="50" height="50" relative="1" as="geometry">
        <Array as="points">
          <mxPoint x="2544" y="1994" />
          <mxPoint x="3060" y="1994" />
        </Array>
      </mxGeometry>
    </mxCell>
    <mxCell id="label260" parent="edge43" vertex="1" connectable="0" value="«create»" style="edgeLabel;resizable=0;html=1;align=left;verticalAlign=top;strokeColor=default;">
      <mxGeometry x="2776" y="1975" as="geometry" />
    </mxCell>
    <mxCell id="edge79" edge="1" value="" parent="1" source="node32" target="node25" style="html=1;rounded=1;edgeStyle=orthogonalEdgeStyle;dashed=1;startArrow=none;endArrow=openThin;endSize=12;strokeColor=#595959;exitX=0.250;exitY=0.000;exitDx=0;exitDy=0;entryX=0.500;entryY=1.001;entryDx=0;entryDy=0;">
      <mxGeometry width="50" height="50" relative="1" as="geometry">
        <Array as="points">
          <mxPoint x="2034" y="2174" />
          <mxPoint x="1460" y="2174" />
        </Array>
      </mxGeometry>
    </mxCell>
    <mxCell id="label476" parent="edge79" vertex="1" connectable="0" value="«create»" style="edgeLabel;resizable=0;html=1;align=left;verticalAlign=top;strokeColor=default;">
      <mxGeometry x="1721" y="2155" as="geometry" />
    </mxCell>
    <mxCell id="edge30" edge="1" value="" parent="1" source="node32" target="node12" style="html=1;rounded=1;edgeStyle=orthogonalEdgeStyle;dashed=1;startArrow=none;endArrow=openThin;endSize=12;strokeColor=#595959;exitX=0.250;exitY=0.000;exitDx=0;exitDy=0;entryX=0.500;entryY=1.001;entryDx=0;entryDy=0;">
      <mxGeometry width="50" height="50" relative="1" as="geometry">
        <Array as="points">
          <mxPoint x="2034" y="2174" />
          <mxPoint x="1460" y="2174" />
          <mxPoint x="1460" y="1974" />
          <mxPoint x="1300" y="1974" />
        </Array>
      </mxGeometry>
    </mxCell>
    <mxCell id="label182" parent="edge30" vertex="1" connectable="0" value="«create»" style="edgeLabel;resizable=0;html=1;align=left;verticalAlign=top;strokeColor=default;">
      <mxGeometry x="1408" y="2115" as="geometry" />
    </mxCell>
    <mxCell id="edge65" edge="1" value="" parent="1" source="node32" target="node8" style="html=1;rounded=1;edgeStyle=orthogonalEdgeStyle;dashed=1;startArrow=none;endArrow=openThin;endSize=12;strokeColor=#595959;exitX=0.250;exitY=0.000;exitDx=0;exitDy=0;entryX=0.500;entryY=1.002;entryDx=0;entryDy=0;">
      <mxGeometry width="50" height="50" relative="1" as="geometry">
        <Array as="points">
          <mxPoint x="2034" y="2174" />
          <mxPoint x="1460" y="2174" />
          <mxPoint x="1460" y="1974" />
          <mxPoint x="1140" y="1974" />
        </Array>
      </mxGeometry>
    </mxCell>
    <mxCell id="label392" parent="edge65" vertex="1" connectable="0" value="«create»" style="edgeLabel;resizable=0;html=1;align=left;verticalAlign=top;strokeColor=default;">
      <mxGeometry x="1408" y="2065" as="geometry" />
    </mxCell>
    <mxCell id="edge103" edge="1" value="" parent="1" source="node32" target="node62" style="html=1;rounded=1;edgeStyle=orthogonalEdgeStyle;dashed=1;startArrow=none;endArrow=block;endSize=12;strokeColor=#008200;exitX=0.750;exitY=0.000;exitDx=0;exitDy=0;entryX=0.250;entryY=1.000;entryDx=0;entryDy=0;">
      <mxGeometry width="50" height="50" relative="1" as="geometry">
        <Array as="points">
          <mxPoint x="2246" y="2174" />
          <mxPoint x="2234" y="2174" />
        </Array>
      </mxGeometry>
    </mxCell>
    <mxCell id="edge100" edge="1" value="" parent="1" source="node28" target="node55" style="html=1;rounded=1;edgeStyle=orthogonalEdgeStyle;dashed=0;startArrow=diamondThinstartSize=12;endArrow=openThin;endSize=12;strokeColor=#595959;exitX=0.167;exitY=0.000;exitDx=0;exitDy=0;entryX=0.750;entryY=1.000;entryDx=0;entryDy=0;">
      <mxGeometry width="50" height="50" relative="1" as="geometry">
        <Array as="points">
          <mxPoint x="3322" y="2154" />
          <mxPoint x="2860" y="2154" />
          <mxPoint x="2860" y="1654" />
          <mxPoint x="2900" y="1654" />
          <mxPoint x="2900" y="554" />
          <mxPoint x="3280" y="554" />
          <mxPoint x="3280" y="454" />
          <mxPoint x="1776" y="454" />
        </Array>
      </mxGeometry>
    </mxCell>
    <mxCell id="label600" parent="edge100" vertex="1" connectable="0" value="1" style="edgeLabel;resizable=0;html=1;align=left;verticalAlign=top;strokeColor=default;">
      <mxGeometry x="3201" y="2136" as="geometry" />
    </mxCell>
    <mxCell id="label604" parent="edge100" vertex="1" connectable="0" value="1" style="edgeLabel;resizable=0;html=1;align=left;verticalAlign=top;strokeColor=default;">
      <mxGeometry x="1764" y="300" as="geometry" />
    </mxCell>
    <mxCell id="label605" parent="edge100" vertex="1" connectable="0" value="sessionsRepository" style="edgeLabel;resizable=0;html=1;align=left;verticalAlign=top;strokeColor=default;">
      <mxGeometry x="1776" y="325" as="geometry" />
    </mxCell>
    <mxCell id="edge117" edge="1" value="" parent="1" source="node28" target="node62" style="html=1;rounded=1;edgeStyle=orthogonalEdgeStyle;dashed=0;startArrow=diamondThinstartSize=12;endArrow=openThin;endSize=12;strokeColor=#595959;exitX=0.167;exitY=0.000;exitDx=0;exitDy=0;entryX=0.750;entryY=1.000;entryDx=0;entryDy=0;">
      <mxGeometry width="50" height="50" relative="1" as="geometry">
        <Array as="points">
          <mxPoint x="3322" y="2154" />
          <mxPoint x="2860" y="2154" />
          <mxPoint x="2860" y="1654" />
          <mxPoint x="2446" y="1654" />
        </Array>
      </mxGeometry>
    </mxCell>
    <mxCell id="label702" parent="edge117" vertex="1" connectable="0" value="1" style="edgeLabel;resizable=0;html=1;align=left;verticalAlign=top;strokeColor=default;">
      <mxGeometry x="3310" y="2145" as="geometry" />
    </mxCell>
    <mxCell id="label706" parent="edge117" vertex="1" connectable="0" value="1" style="edgeLabel;resizable=0;html=1;align=left;verticalAlign=top;strokeColor=default;">
      <mxGeometry x="2434" y="1617" as="geometry" />
    </mxCell>
    <mxCell id="label707" parent="edge117" vertex="1" connectable="0" value="ticketsService" style="edgeLabel;resizable=0;html=1;align=left;verticalAlign=top;strokeColor=default;">
      <mxGeometry x="2509" y="1654" as="geometry" />
    </mxCell>
    <mxCell id="edge90" edge="1" value="" parent="1" source="node28" target="node54" style="html=1;rounded=1;edgeStyle=orthogonalEdgeStyle;dashed=1;startArrow=none;endArrow=block;endSize=12;strokeColor=#008200;exitX=0.500;exitY=0.000;exitDx=0;exitDy=0;entryX=0.500;entryY=1.000;entryDx=0;entryDy=0;">
      <mxGeometry width="50" height="50" relative="1" as="geometry">
        <Array as="points">
          <mxPoint x="3460" y="2154" />
          <mxPoint x="3380" y="2154" />
        </Array>
      </mxGeometry>
    </mxCell>
    <mxCell id="edge50" edge="1" value="" parent="1" source="node28" target="node9" style="html=1;rounded=1;edgeStyle=orthogonalEdgeStyle;dashed=1;startArrow=none;endArrow=openThin;endSize=12;strokeColor=#595959;exitX=0.833;exitY=0.000;exitDx=0;exitDy=0;entryX=0.500;entryY=1.000;entryDx=0;entryDy=0;">
      <mxGeometry width="50" height="50" relative="1" as="geometry">
        <Array as="points">
          <mxPoint x="3598" y="2154" />
          <mxPoint x="3800" y="2154" />
        </Array>
      </mxGeometry>
    </mxCell>
    <mxCell id="label302" parent="edge50" vertex="1" connectable="0" value="«create»" style="edgeLabel;resizable=0;html=1;align=left;verticalAlign=top;strokeColor=default;">
      <mxGeometry x="3673" y="2135" as="geometry" />
    </mxCell>
    <mxCell id="edge29" edge="1" value="" parent="1" source="node2" target="node15" style="html=1;rounded=1;edgeStyle=orthogonalEdgeStyle;dashed=1;startArrow=none;endArrow=openThin;endSize=12;strokeColor=#595959;exitX=0.250;exitY=0.000;exitDx=0;exitDy=0;entryX=0.500;entryY=1.000;entryDx=0;entryDy=0;">
      <mxGeometry width="50" height="50" relative="1" as="geometry">
        <Array as="points">
          <mxPoint x="3461" y="2554" />
          <mxPoint x="3460" y="2554" />
          <mxPoint x="3460" y="2374" />
          <mxPoint x="740" y="2374" />
        </Array>
      </mxGeometry>
    </mxCell>
    <mxCell id="label176" parent="edge29" vertex="1" connectable="0" value="«create»" style="edgeLabel;resizable=0;html=1;align=left;verticalAlign=top;strokeColor=default;">
      <mxGeometry x="2754" y="2355" as="geometry" />
    </mxCell>
    <mxCell id="edge39" edge="1" value="" parent="1" source="node2" target="node3" style="html=1;rounded=1;edgeStyle=orthogonalEdgeStyle;dashed=0;startArrow=diamondThinstartSize=12;endArrow=openThin;endSize=12;strokeColor=#595959;exitX=0.750;exitY=0.000;exitDx=0;exitDy=0;entryX=0.750;entryY=1.001;entryDx=0;entryDy=0;">
      <mxGeometry width="50" height="50" relative="1" as="geometry">
        <Array as="points">
          <mxPoint x="3619" y="2414" />
          <mxPoint x="6220" y="2414" />
        </Array>
      </mxGeometry>
    </mxCell>
    <mxCell id="label234" parent="edge39" vertex="1" connectable="0" value="1" style="edgeLabel;resizable=0;html=1;align=left;verticalAlign=top;strokeColor=default;">
      <mxGeometry x="3607" y="2530" as="geometry" />
    </mxCell>
    <mxCell id="label238" parent="edge39" vertex="1" connectable="0" value="1" style="edgeLabel;resizable=0;html=1;align=left;verticalAlign=top;strokeColor=default;">
      <mxGeometry x="6208" y="2307" as="geometry" />
    </mxCell>
    <mxCell id="label239" parent="edge39" vertex="1" connectable="0" value="configReader" style="edgeLabel;resizable=0;html=1;align=left;verticalAlign=top;strokeColor=default;">
      <mxGeometry x="6220" y="2289" as="geometry" />
    </mxCell>
    <mxCell id="edge69" edge="1" value="" parent="1" source="node2" target="node3" style="html=1;rounded=1;edgeStyle=orthogonalEdgeStyle;dashed=1;startArrow=none;endArrow=openThin;endSize=12;strokeColor=#595959;exitX=0.250;exitY=0.000;exitDx=0;exitDy=0;entryX=0.250;entryY=1.001;entryDx=0;entryDy=0;">
      <mxGeometry width="50" height="50" relative="1" as="geometry">
        <Array as="points">
          <mxPoint x="3461" y="2554" />
          <mxPoint x="3460" y="2554" />
          <mxPoint x="3460" y="2374" />
          <mxPoint x="6141" y="2374" />
        </Array>
      </mxGeometry>
    </mxCell>
    <mxCell id="label416" parent="edge69" vertex="1" connectable="0" value="«create»" style="edgeLabel;resizable=0;html=1;align=left;verticalAlign=top;strokeColor=default;">
      <mxGeometry x="3408" y="2500" as="geometry" />
    </mxCell>
    <mxCell id="edge68" edge="1" value="" parent="1" source="node2" target="node5" style="html=1;rounded=1;edgeStyle=orthogonalEdgeStyle;dashed=1;startArrow=none;endArrow=openThin;endSize=12;strokeColor=#595959;exitX=0.250;exitY=0.000;exitDx=0;exitDy=0;entryX=0.500;entryY=1.000;entryDx=0;entryDy=0;">
      <mxGeometry width="50" height="50" relative="1" as="geometry">
        <Array as="points">
          <mxPoint x="3461" y="2554" />
          <mxPoint x="3460" y="2554" />
          <mxPoint x="3460" y="2374" />
          <mxPoint x="6000" y="2374" />
        </Array>
      </mxGeometry>
    </mxCell>
    <mxCell id="label410" parent="edge68" vertex="1" connectable="0" value="«create»" style="edgeLabel;resizable=0;html=1;align=left;verticalAlign=top;strokeColor=default;">
      <mxGeometry x="4069" y="2355" as="geometry" />
    </mxCell>
    <mxCell id="edge34" edge="1" value="" parent="1" source="node2" target="node26" style="html=1;rounded=1;edgeStyle=orthogonalEdgeStyle;dashed=1;startArrow=none;endArrow=openThin;endSize=12;strokeColor=#595959;exitX=0.250;exitY=0.000;exitDx=0;exitDy=0;entryX=0.500;entryY=1.001;entryDx=0;entryDy=0;">
      <mxGeometry width="50" height="50" relative="1" as="geometry">
        <Array as="points">
          <mxPoint x="3461" y="2554" />
          <mxPoint x="3460" y="2554" />
          <mxPoint x="3460" y="2374" />
          <mxPoint x="2780" y="2374" />
          <mxPoint x="2780" y="2174" />
          <mxPoint x="2760" y="2174" />
        </Array>
      </mxGeometry>
    </mxCell>
    <mxCell id="label206" parent="edge34" vertex="1" connectable="0" value="«create»" style="edgeLabel;resizable=0;html=1;align=left;verticalAlign=top;strokeColor=default;">
      <mxGeometry x="3094" y="2355" as="geometry" />
    </mxCell>
    <mxCell id="edge48" edge="1" value="" parent="1" source="node2" target="node27" style="html=1;rounded=1;edgeStyle=orthogonalEdgeStyle;dashed=1;startArrow=none;endArrow=openThin;endSize=12;strokeColor=#595959;exitX=0.250;exitY=0.000;exitDx=0;exitDy=0;entryX=0.500;entryY=1.000;entryDx=0;entryDy=0;">
      <mxGeometry width="50" height="50" relative="1" as="geometry">
        <Array as="points">
          <mxPoint x="3461" y="2554" />
          <mxPoint x="3460" y="2554" />
          <mxPoint x="3460" y="2374" />
          <mxPoint x="2620" y="2374" />
        </Array>
      </mxGeometry>
    </mxCell>
    <mxCell id="label290" parent="edge48" vertex="1" connectable="0" value="«create»" style="edgeLabel;resizable=0;html=1;align=left;verticalAlign=top;strokeColor=default;">
      <mxGeometry x="3224" y="2355" as="geometry" />
    </mxCell>
    <mxCell id="edge23" edge="1" value="" parent="1" source="node2" target="node43" style="html=1;rounded=1;edgeStyle=orthogonalEdgeStyle;dashed=1;startArrow=none;endArrow=openThin;endSize=12;strokeColor=#595959;exitX=0.250;exitY=0.000;exitDx=0;exitDy=0;entryX=0.500;entryY=1.001;entryDx=0;entryDy=0;">
      <mxGeometry width="50" height="50" relative="1" as="geometry">
        <Array as="points">
          <mxPoint x="3461" y="2554" />
          <mxPoint x="3460" y="2554" />
          <mxPoint x="3460" y="2374" />
          <mxPoint x="3220" y="2374" />
        </Array>
      </mxGeometry>
    </mxCell>
    <mxCell id="label140" parent="edge23" vertex="1" connectable="0" value="«create»" style="edgeLabel;resizable=0;html=1;align=left;verticalAlign=top;strokeColor=default;">
      <mxGeometry x="3374" y="2355" as="geometry" />
    </mxCell>
    <mxCell id="edge64" edge="1" value="" parent="1" source="node2" target="node35" style="html=1;rounded=1;edgeStyle=orthogonalEdgeStyle;dashed=1;startArrow=none;endArrow=openThin;endSize=12;strokeColor=#595959;exitX=0.250;exitY=0.000;exitDx=0;exitDy=0;entryX=0.500;entryY=1.000;entryDx=0;entryDy=0;">
      <mxGeometry width="50" height="50" relative="1" as="geometry">
        <Array as="points">
          <mxPoint x="3461" y="2554" />
          <mxPoint x="3460" y="2554" />
          <mxPoint x="3460" y="2374" />
          <mxPoint x="5740" y="2374" />
        </Array>
      </mxGeometry>
    </mxCell>
    <mxCell id="label386" parent="edge64" vertex="1" connectable="0" value="«create»" style="edgeLabel;resizable=0;html=1;align=left;verticalAlign=top;strokeColor=default;">
      <mxGeometry x="4004" y="2355" as="geometry" />
    </mxCell>
    <mxCell id="edge54" edge="1" value="" parent="1" source="node2" target="node30" style="html=1;rounded=1;edgeStyle=orthogonalEdgeStyle;dashed=1;startArrow=none;endArrow=openThin;endSize=12;strokeColor=#595959;exitX=0.250;exitY=0.000;exitDx=0;exitDy=0;entryX=0.500;entryY=1.000;entryDx=0;entryDy=0;">
      <mxGeometry width="50" height="50" relative="1" as="geometry">
        <Array as="points">
          <mxPoint x="3461" y="2554" />
          <mxPoint x="3460" y="2554" />
          <mxPoint x="3460" y="2374" />
          <mxPoint x="6340" y="2374" />
        </Array>
      </mxGeometry>
    </mxCell>
    <mxCell id="label326" parent="edge54" vertex="1" connectable="0" value="«create»" style="edgeLabel;resizable=0;html=1;align=left;verticalAlign=top;strokeColor=default;">
      <mxGeometry x="4154" y="2355" as="geometry" />
    </mxCell>
    <mxCell id="edge25" edge="1" value="" parent="1" source="node2" target="node44" style="html=1;rounded=1;edgeStyle=orthogonalEdgeStyle;dashed=1;startArrow=none;endArrow=openThin;endSize=12;strokeColor=#595959;exitX=0.250;exitY=0.000;exitDx=0;exitDy=0;entryX=0.500;entryY=1.001;entryDx=0;entryDy=0;">
      <mxGeometry width="50" height="50" relative="1" as="geometry">
        <Array as="points">
          <mxPoint x="3461" y="2554" />
          <mxPoint x="3460" y="2554" />
          <mxPoint x="3460" y="2374" />
          <mxPoint x="2460" y="2374" />
        </Array>
      </mxGeometry>
    </mxCell>
    <mxCell id="label152" parent="edge25" vertex="1" connectable="0" value="«create»" style="edgeLabel;resizable=0;html=1;align=left;verticalAlign=top;strokeColor=default;">
      <mxGeometry x="3369" y="2545" as="geometry" />
    </mxCell>
    <mxCell id="edge60" edge="1" value="" parent="1" source="node2" target="node32" style="html=1;rounded=1;edgeStyle=orthogonalEdgeStyle;dashed=1;startArrow=none;endArrow=openThin;endSize=12;strokeColor=#595959;exitX=0.250;exitY=0.000;exitDx=0;exitDy=0;entryX=0.500;entryY=1.000;entryDx=0;entryDy=0;">
      <mxGeometry width="50" height="50" relative="1" as="geometry">
        <Array as="points">
          <mxPoint x="3461" y="2554" />
          <mxPoint x="3460" y="2554" />
          <mxPoint x="3460" y="2374" />
          <mxPoint x="2140" y="2374" />
        </Array>
      </mxGeometry>
    </mxCell>
    <mxCell id="label362" parent="edge60" vertex="1" connectable="0" value="«create»" style="edgeLabel;resizable=0;html=1;align=left;verticalAlign=top;strokeColor=default;">
      <mxGeometry x="3408" y="2455" as="geometry" />
    </mxCell>
    <mxCell id="edge24" edge="1" value="" parent="1" source="node2" target="node28" style="html=1;rounded=1;edgeStyle=orthogonalEdgeStyle;dashed=1;startArrow=none;endArrow=openThin;endSize=12;strokeColor=#595959;exitX=0.250;exitY=0.000;exitDx=0;exitDy=0;entryX=0.500;entryY=1.000;entryDx=0;entryDy=0;">
      <mxGeometry width="50" height="50" relative="1" as="geometry">
        <Array as="points">
          <mxPoint x="3461" y="2554" />
          <mxPoint x="3460" y="2554" />
        </Array>
      </mxGeometry>
    </mxCell>
    <mxCell id="label146" parent="edge24" vertex="1" connectable="0" value="«create»" style="edgeLabel;resizable=0;html=1;align=left;verticalAlign=top;strokeColor=default;">
      <mxGeometry x="3408" y="2430" as="geometry" />
    </mxCell>
    <mxCell id="edge62" edge="1" value="" parent="1" source="node2" target="node42" style="html=1;rounded=1;edgeStyle=orthogonalEdgeStyle;dashed=1;startArrow=none;endArrow=openThin;endSize=12;strokeColor=#595959;exitX=0.250;exitY=0.000;exitDx=0;exitDy=0;entryX=0.500;entryY=1.000;entryDx=0;entryDy=0;">
      <mxGeometry width="50" height="50" relative="1" as="geometry">
        <Array as="points">
          <mxPoint x="3461" y="2554" />
          <mxPoint x="3460" y="2554" />
          <mxPoint x="3460" y="2374" />
          <mxPoint x="5000" y="2374" />
        </Array>
      </mxGeometry>
    </mxCell>
    <mxCell id="label374" parent="edge62" vertex="1" connectable="0" value="«create»" style="edgeLabel;resizable=0;html=1;align=left;verticalAlign=top;strokeColor=default;">
      <mxGeometry x="3434" y="2355" as="geometry" />
    </mxCell>
    <mxCell id="edge73" edge="1" value="" parent="1" source="node2" target="node14" style="html=1;rounded=1;edgeStyle=orthogonalEdgeStyle;dashed=1;startArrow=none;endArrow=openThin;endSize=12;strokeColor=#595959;exitX=0.250;exitY=0.000;exitDx=0;exitDy=0;entryX=0.750;entryY=1.000;entryDx=0;entryDy=0;">
      <mxGeometry width="50" height="50" relative="1" as="geometry">
        <Array as="points">
          <mxPoint x="3461" y="2554" />
          <mxPoint x="3460" y="2554" />
          <mxPoint x="3460" y="2374" />
          <mxPoint x="4400" y="2374" />
          <mxPoint x="4400" y="1874" />
          <mxPoint x="4224" y="1874" />
        </Array>
      </mxGeometry>
    </mxCell>
    <mxCell id="label440" parent="edge73" vertex="1" connectable="0" value="«create»" style="edgeLabel;resizable=0;html=1;align=left;verticalAlign=top;strokeColor=default;">
      <mxGeometry x="3669" y="2355" as="geometry" />
    </mxCell>
    <mxCell id="edge26" edge="1" value="" parent="1" source="node2" target="node13" style="html=1;rounded=1;edgeStyle=orthogonalEdgeStyle;dashed=1;startArrow=none;endArrow=openThin;endSize=12;strokeColor=#595959;exitX=0.250;exitY=0.000;exitDx=0;exitDy=0;entryX=0.500;entryY=1.000;entryDx=0;entryDy=0;">
      <mxGeometry width="50" height="50" relative="1" as="geometry">
        <Array as="points">
          <mxPoint x="3461" y="2554" />
          <mxPoint x="3460" y="2554" />
          <mxPoint x="3460" y="2374" />
          <mxPoint x="-80" y="2374" />
        </Array>
      </mxGeometry>
    </mxCell>
    <mxCell id="label158" parent="edge26" vertex="1" connectable="0" value="«create»" style="edgeLabel;resizable=0;html=1;align=left;verticalAlign=top;strokeColor=default;">
      <mxGeometry x="3435" y="2535" as="geometry" />
    </mxCell>
    <mxCell id="edge82" edge="1" value="" parent="1" source="node2" target="node29" style="html=1;rounded=1;edgeStyle=orthogonalEdgeStyle;dashed=1;startArrow=none;endArrow=openThin;endSize=12;strokeColor=#595959;exitX=0.250;exitY=0.000;exitDx=0;exitDy=0;entryX=0.500;entryY=1.000;entryDx=0;entryDy=0;">
      <mxGeometry width="50" height="50" relative="1" as="geometry">
        <Array as="points">
          <mxPoint x="3461" y="2554" />
          <mxPoint x="3460" y="2554" />
          <mxPoint x="3460" y="2374" />
          <mxPoint x="4760" y="2374" />
        </Array>
      </mxGeometry>
    </mxCell>
    <mxCell id="label494" parent="edge82" vertex="1" connectable="0" value="«create»" style="edgeLabel;resizable=0;html=1;align=left;verticalAlign=top;strokeColor=default;">
      <mxGeometry x="3408" y="2410" as="geometry" />
    </mxCell>
    <mxCell id="edge36" edge="1" value="" parent="1" source="node2" target="node48" style="html=1;rounded=1;edgeStyle=orthogonalEdgeStyle;dashed=1;startArrow=none;endArrow=openThin;endSize=12;strokeColor=#595959;exitX=0.250;exitY=0.000;exitDx=0;exitDy=0;entryX=0.500;entryY=1.000;entryDx=0;entryDy=0;">
      <mxGeometry width="50" height="50" relative="1" as="geometry">
        <Array as="points">
          <mxPoint x="3461" y="2554" />
          <mxPoint x="3460" y="2554" />
          <mxPoint x="3460" y="2374" />
          <mxPoint x="5420" y="2374" />
        </Array>
      </mxGeometry>
    </mxCell>
    <mxCell id="label218" parent="edge36" vertex="1" connectable="0" value="«create»" style="edgeLabel;resizable=0;html=1;align=left;verticalAlign=top;strokeColor=default;">
      <mxGeometry x="3924" y="2355" as="geometry" />
    </mxCell>
    <mxCell id="edge83" edge="1" value="" parent="1" source="node2" target="node24" style="html=1;rounded=1;edgeStyle=orthogonalEdgeStyle;dashed=1;startArrow=none;endArrow=openThin;endSize=12;strokeColor=#595959;exitX=0.250;exitY=0.000;exitDx=0;exitDy=0;entryX=0.500;entryY=1.000;entryDx=0;entryDy=0;">
      <mxGeometry width="50" height="50" relative="1" as="geometry">
        <Array as="points">
          <mxPoint x="3461" y="2554" />
          <mxPoint x="3460" y="2554" />
          <mxPoint x="3460" y="2374" />
          <mxPoint x="460" y="2374" />
        </Array>
      </mxGeometry>
    </mxCell>
    <mxCell id="label500" parent="edge83" vertex="1" connectable="0" value="«create»" style="edgeLabel;resizable=0;html=1;align=left;verticalAlign=top;strokeColor=default;">
      <mxGeometry x="2684" y="2355" as="geometry" />
    </mxCell>
    <mxCell id="edge77" edge="1" value="" parent="1" source="node2" target="node37" style="html=1;rounded=1;edgeStyle=orthogonalEdgeStyle;dashed=1;startArrow=none;endArrow=openThin;endSize=12;strokeColor=#595959;exitX=0.250;exitY=0.000;exitDx=0;exitDy=0;entryX=0.500;entryY=1.000;entryDx=0;entryDy=0;">
      <mxGeometry width="50" height="50" relative="1" as="geometry">
        <Array as="points">
          <mxPoint x="3461" y="2554" />
          <mxPoint x="3460" y="2554" />
          <mxPoint x="3460" y="2374" />
          <mxPoint x="1000" y="2374" />
        </Array>
      </mxGeometry>
    </mxCell>
    <mxCell id="label464" parent="edge77" vertex="1" connectable="0" value="«create»" style="edgeLabel;resizable=0;html=1;align=left;verticalAlign=top;strokeColor=default;">
      <mxGeometry x="2819" y="2355" as="geometry" />
    </mxCell>
    <mxCell id="edge9" edge="1" value="" parent="1" source="node42" target="node36" style="html=1;rounded=1;edgeStyle=orthogonalEdgeStyle;dashed=0;startArrow=none;endArrow=block;endSize=12;strokeColor=#000082;exitX=0.833;exitY=0.000;exitDx=0;exitDy=0;entryX=0.875;entryY=1.000;entryDx=0;entryDy=0;">
      <mxGeometry width="50" height="50" relative="1" as="geometry">
        <Array as="points">
          <mxPoint x="5085" y="534" />
          <mxPoint x="5500" y="534" />
          <mxPoint x="5500" y="14" />
          <mxPoint x="4972" y="14" />
        </Array>
      </mxGeometry>
    </mxCell>
    <mxCell id="edge53" edge="1" value="" parent="1" source="node42" target="node36" style="html=1;rounded=1;edgeStyle=orthogonalEdgeStyle;dashed=1;startArrow=none;endArrow=openThin;endSize=12;strokeColor=#595959;exitX=0.500;exitY=0.000;exitDx=0;exitDy=0;entryX=0.625;entryY=1.000;entryDx=0;entryDy=0;">
      <mxGeometry width="50" height="50" relative="1" as="geometry">
        <Array as="points">
          <mxPoint x="5000" y="494" />
          <mxPoint x="4960" y="494" />
          <mxPoint x="4960" y="94" />
          <mxPoint x="4920" y="94" />
          <mxPoint x="4920" y="14" />
          <mxPoint x="4911" y="14" />
        </Array>
      </mxGeometry>
    </mxCell>
    <mxCell id="label320" parent="edge53" vertex="1" connectable="0" value="«create»" style="edgeLabel;resizable=0;html=1;align=left;verticalAlign=top;strokeColor=default;">
      <mxGeometry x="4908" y="85" as="geometry" />
    </mxCell>
    <mxCell id="edge109" edge="1" value="" parent="1" source="node42" target="node60" style="html=1;rounded=1;edgeStyle=orthogonalEdgeStyle;dashed=0;startArrow=diamondThinstartSize=12;endArrow=openThin;endSize=12;strokeColor=#595959;exitX=0.167;exitY=0.000;exitDx=0;exitDy=0;entryX=0.750;entryY=1.001;entryDx=0;entryDy=0;">
      <mxGeometry width="50" height="50" relative="1" as="geometry">
        <Array as="points">
          <mxPoint x="4915" y="1194" />
          <mxPoint x="4080" y="1194" />
          <mxPoint x="4080" y="774" />
          <mxPoint x="3360" y="774" />
          <mxPoint x="3360" y="494" />
          <mxPoint x="2816" y="494" />
        </Array>
      </mxGeometry>
    </mxCell>
    <mxCell id="label654" parent="edge109" vertex="1" connectable="0" value="1" style="edgeLabel;resizable=0;html=1;align=left;verticalAlign=top;strokeColor=default;">
      <mxGeometry x="4903" y="1445" as="geometry" />
    </mxCell>
    <mxCell id="label658" parent="edge109" vertex="1" connectable="0" value="1" style="edgeLabel;resizable=0;html=1;align=left;verticalAlign=top;strokeColor=default;">
      <mxGeometry x="2804" y="449" as="geometry" />
    </mxCell>
    <mxCell id="label659" parent="edge109" vertex="1" connectable="0" value="filmIdService" style="edgeLabel;resizable=0;html=1;align=left;verticalAlign=top;strokeColor=default;">
      <mxGeometry x="2816" y="460" as="geometry" />
    </mxCell>
    <mxCell id="edge93" edge="1" value="" parent="1" source="node42" target="node52" style="html=1;rounded=1;edgeStyle=orthogonalEdgeStyle;dashed=0;startArrow=diamondThinstartSize=12;endArrow=openThin;endSize=12;strokeColor=#595959;exitX=0.167;exitY=0.000;exitDx=0;exitDy=0;entryX=0.750;entryY=1.000;entryDx=0;entryDy=0;">
      <mxGeometry width="50" height="50" relative="1" as="geometry">
        <Array as="points">
          <mxPoint x="4915" y="1194" />
          <mxPoint x="4080" y="1194" />
          <mxPoint x="4080" y="754" />
          <mxPoint x="3880" y="754" />
          <mxPoint x="3880" y="474" />
          <mxPoint x="3163" y="474" />
        </Array>
      </mxGeometry>
    </mxCell>
    <mxCell id="label558" parent="edge93" vertex="1" connectable="0" value="1" style="edgeLabel;resizable=0;html=1;align=left;verticalAlign=top;strokeColor=default;">
      <mxGeometry x="4903" y="1380" as="geometry" />
    </mxCell>
    <mxCell id="label562" parent="edge93" vertex="1" connectable="0" value="1" style="edgeLabel;resizable=0;html=1;align=left;verticalAlign=top;strokeColor=default;">
      <mxGeometry x="3111" y="257" as="geometry" />
    </mxCell>
    <mxCell id="label563" parent="edge93" vertex="1" connectable="0" value="filmValidator" style="edgeLabel;resizable=0;html=1;align=left;verticalAlign=top;strokeColor=default;">
      <mxGeometry x="3203" y="257" as="geometry" />
    </mxCell>
    <mxCell id="edge108" edge="1" value="" parent="1" source="node42" target="node59" style="html=1;rounded=1;edgeStyle=orthogonalEdgeStyle;dashed=0;startArrow=diamondThinstartSize=12;endArrow=openThin;endSize=12;strokeColor=#595959;exitX=0.167;exitY=0.000;exitDx=0;exitDy=0;entryX=0.750;entryY=1.000;entryDx=0;entryDy=0;">
      <mxGeometry width="50" height="50" relative="1" as="geometry">
        <Array as="points">
          <mxPoint x="4915" y="1194" />
          <mxPoint x="4080" y="1194" />
          <mxPoint x="4080" y="914" />
          <mxPoint x="3320" y="914" />
          <mxPoint x="3320" y="534" />
          <mxPoint x="1129" y="534" />
        </Array>
      </mxGeometry>
    </mxCell>
    <mxCell id="label648" parent="edge108" vertex="1" connectable="0" value="1" style="edgeLabel;resizable=0;html=1;align=left;verticalAlign=top;strokeColor=default;">
      <mxGeometry x="4903" y="1431" as="geometry" />
    </mxCell>
    <mxCell id="label652" parent="edge108" vertex="1" connectable="0" value="1" style="edgeLabel;resizable=0;html=1;align=left;verticalAlign=top;strokeColor=default;">
      <mxGeometry x="1117" y="506" as="geometry" />
    </mxCell>
    <mxCell id="label653" parent="edge108" vertex="1" connectable="0" value="filmsRepository" style="edgeLabel;resizable=0;html=1;align=left;verticalAlign=top;strokeColor=default;">
      <mxGeometry x="1083" y="574" as="geometry" />
    </mxCell>
    <mxCell id="edge76" edge="1" value="" parent="1" source="node42" target="node0" style="html=1;rounded=1;edgeStyle=orthogonalEdgeStyle;dashed=0;startArrow=diamondThinstartSize=12;endArrow=openThin;endSize=12;strokeColor=#595959;exitX=0.167;exitY=0.000;exitDx=0;exitDy=0;entryX=0.250;entryY=1.000;entryDx=0;entryDy=0;">
      <mxGeometry width="50" height="50" relative="1" as="geometry">
        <Array as="points">
          <mxPoint x="4915" y="1194" />
          <mxPoint x="4080" y="1194" />
          <mxPoint x="4080" y="654" />
          <mxPoint x="4400" y="654" />
          <mxPoint x="4400" y="514" />
          <mxPoint x="5241" y="514" />
        </Array>
      </mxGeometry>
    </mxCell>
    <mxCell id="label456" parent="edge76" vertex="1" connectable="0" value="1" style="edgeLabel;resizable=0;html=1;align=left;verticalAlign=top;strokeColor=default;">
      <mxGeometry x="4863" y="1431" as="geometry" />
    </mxCell>
    <mxCell id="label460" parent="edge76" vertex="1" connectable="0" value="1" style="edgeLabel;resizable=0;html=1;align=left;verticalAlign=top;strokeColor=default;">
      <mxGeometry x="5229" y="256" as="geometry" />
    </mxCell>
    <mxCell id="label461" parent="edge76" vertex="1" connectable="0" value="inputReader" style="edgeLabel;resizable=0;html=1;align=left;verticalAlign=top;strokeColor=default;">
      <mxGeometry x="5281" y="271" as="geometry" />
    </mxCell>
    <mxCell id="edge38" edge="1" value="" parent="1" source="node42" target="node6" style="html=1;rounded=1;edgeStyle=orthogonalEdgeStyle;dashed=1;startArrow=none;endArrow=openThin;endSize=12;strokeColor=#595959;exitX=0.500;exitY=0.000;exitDx=0;exitDy=0;entryX=0.500;entryY=1.000;entryDx=0;entryDy=0;">
      <mxGeometry width="50" height="50" relative="1" as="geometry">
        <Array as="points">
          <mxPoint x="5000" y="494" />
          <mxPoint x="5100" y="494" />
        </Array>
      </mxGeometry>
    </mxCell>
    <mxCell id="label230" parent="edge38" vertex="1" connectable="0" value="«create»" style="edgeLabel;resizable=0;html=1;align=left;verticalAlign=top;strokeColor=default;">
      <mxGeometry x="5048" y="473" as="geometry" />
    </mxCell>
    <mxCell id="edge66" edge="1" value="" parent="1" source="node42" target="node16" style="html=1;rounded=1;edgeStyle=orthogonalEdgeStyle;dashed=1;startArrow=none;endArrow=openThin;endSize=12;strokeColor=#595959;exitX=0.500;exitY=0.000;exitDx=0;exitDy=0;entryX=0.750;entryY=1.000;entryDx=0;entryDy=0;">
      <mxGeometry width="50" height="50" relative="1" as="geometry">
        <Array as="points">
          <mxPoint x="5000" y="1154" />
          <mxPoint x="4800" y="1154" />
          <mxPoint x="4800" y="494" />
          <mxPoint x="4643" y="494" />
        </Array>
      </mxGeometry>
    </mxCell>
    <mxCell id="label398" parent="edge66" vertex="1" connectable="0" value="«create»" style="edgeLabel;resizable=0;html=1;align=left;verticalAlign=top;strokeColor=default;">
      <mxGeometry x="4748" y="815" as="geometry" />
    </mxCell>
    <mxCell id="edge71" edge="1" value="" parent="1" source="node42" target="node16" style="html=1;rounded=1;edgeStyle=orthogonalEdgeStyle;dashed=0;startArrow=diamondThinstartSize=12;endArrow=openThin;endSize=12;strokeColor=#595959;exitX=0.167;exitY=0.000;exitDx=0;exitDy=0;entryX=0.250;entryY=1.000;entryDx=0;entryDy=0;">
      <mxGeometry width="50" height="50" relative="1" as="geometry">
        <Array as="points">
          <mxPoint x="4915" y="1194" />
          <mxPoint x="4080" y="1194" />
          <mxPoint x="4080" y="634" />
          <mxPoint x="4320" y="634" />
          <mxPoint x="4320" y="534" />
          <mxPoint x="4557" y="534" />
        </Array>
      </mxGeometry>
    </mxCell>
    <mxCell id="label426" parent="edge71" vertex="1" connectable="0" value="1" style="edgeLabel;resizable=0;html=1;align=left;verticalAlign=top;strokeColor=default;">
      <mxGeometry x="4863" y="1380" as="geometry" />
    </mxCell>
    <mxCell id="label430" parent="edge71" vertex="1" connectable="0" value="*" style="edgeLabel;resizable=0;html=1;align=left;verticalAlign=top;strokeColor=default;">
      <mxGeometry x="4547" y="303" as="geometry" />
    </mxCell>
    <mxCell id="label431" parent="edge71" vertex="1" connectable="0" value="menuItems" style="edgeLabel;resizable=0;html=1;align=left;verticalAlign=top;strokeColor=default;">
      <mxGeometry x="4557" y="228" as="geometry" />
    </mxCell>
    <mxCell id="edge14" edge="1" value="" parent="1" source="node14" target="node36" style="html=1;rounded=1;edgeStyle=orthogonalEdgeStyle;dashed=0;startArrow=none;endArrow=block;endSize=12;strokeColor=#000082;exitX=0.833;exitY=0.000;exitDx=0;exitDy=0;entryX=0.875;entryY=1.000;entryDx=0;entryDy=0;">
      <mxGeometry width="50" height="50" relative="1" as="geometry">
        <Array as="points">
          <mxPoint x="4245" y="1174" />
          <mxPoint x="4240" y="1174" />
          <mxPoint x="4240" y="74" />
          <mxPoint x="5500" y="74" />
          <mxPoint x="5500" y="14" />
          <mxPoint x="4972" y="14" />
        </Array>
      </mxGeometry>
    </mxCell>
    <mxCell id="edge40" edge="1" value="" parent="1" source="node14" target="node36" style="html=1;rounded=1;edgeStyle=orthogonalEdgeStyle;dashed=1;startArrow=none;endArrow=openThin;endSize=12;strokeColor=#595959;exitX=0.500;exitY=0.000;exitDx=0;exitDy=0;entryX=0.625;entryY=1.000;entryDx=0;entryDy=0;">
      <mxGeometry width="50" height="50" relative="1" as="geometry">
        <Array as="points">
          <mxPoint x="4160" y="1434" />
          <mxPoint x="4120" y="1434" />
          <mxPoint x="4120" y="734" />
          <mxPoint x="3760" y="734" />
          <mxPoint x="3760" y="94" />
          <mxPoint x="4920" y="94" />
          <mxPoint x="4920" y="14" />
          <mxPoint x="4911" y="14" />
        </Array>
      </mxGeometry>
    </mxCell>
    <mxCell id="label242" parent="edge40" vertex="1" connectable="0" value="«create»" style="edgeLabel;resizable=0;html=1;align=left;verticalAlign=top;strokeColor=default;">
      <mxGeometry x="3708" y="405" as="geometry" />
    </mxCell>
    <mxCell id="edge57" edge="1" value="" parent="1" source="node14" target="node36" style="html=1;rounded=1;edgeStyle=orthogonalEdgeStyle;dashed=0;startArrow=diamondThinstartSize=12;endArrow=openThin;endSize=12;strokeColor=#595959;exitX=0.167;exitY=0.000;exitDx=0;exitDy=0;entryX=0.125;entryY=1.000;entryDx=0;entryDy=0;">
      <mxGeometry width="50" height="50" relative="1" as="geometry">
        <Array as="points">
          <mxPoint x="4075" y="1434" />
          <mxPoint x="4000" y="1434" />
          <mxPoint x="4000" y="854" />
          <mxPoint x="3720" y="854" />
          <mxPoint x="3720" y="14" />
          <mxPoint x="4788" y="14" />
        </Array>
      </mxGeometry>
    </mxCell>
    <mxCell id="label342" parent="edge57" vertex="1" connectable="0" value="1" style="edgeLabel;resizable=0;html=1;align=left;verticalAlign=top;strokeColor=default;">
      <mxGeometry x="4013" y="1416" as="geometry" />
    </mxCell>
    <mxCell id="label346" parent="edge57" vertex="1" connectable="0" value="1" style="edgeLabel;resizable=0;html=1;align=left;verticalAlign=top;strokeColor=default;">
      <mxGeometry x="4736" y="-6" as="geometry" />
    </mxCell>
    <mxCell id="label347" parent="edge57" vertex="1" connectable="0" value="filmEditMenu" style="edgeLabel;resizable=0;html=1;align=left;verticalAlign=top;strokeColor=default;">
      <mxGeometry x="4749" y="14" as="geometry" />
    </mxCell>
    <mxCell id="edge119" edge="1" value="" parent="1" source="node14" target="node52" style="html=1;rounded=1;edgeStyle=orthogonalEdgeStyle;dashed=0;startArrow=diamondThinstartSize=12;endArrow=openThin;endSize=12;strokeColor=#595959;exitX=0.167;exitY=0.000;exitDx=0;exitDy=0;entryX=0.750;entryY=1.000;entryDx=0;entryDy=0;">
      <mxGeometry width="50" height="50" relative="1" as="geometry">
        <Array as="points">
          <mxPoint x="4075" y="1434" />
          <mxPoint x="4000" y="1434" />
          <mxPoint x="4000" y="814" />
          <mxPoint x="3880" y="814" />
          <mxPoint x="3880" y="474" />
          <mxPoint x="3163" y="474" />
        </Array>
      </mxGeometry>
    </mxCell>
    <mxCell id="label714" parent="edge119" vertex="1" connectable="0" value="1" style="edgeLabel;resizable=0;html=1;align=left;verticalAlign=top;strokeColor=default;">
      <mxGeometry x="3994" y="1416" as="geometry" />
    </mxCell>
    <mxCell id="label718" parent="edge119" vertex="1" connectable="0" value="1" style="edgeLabel;resizable=0;html=1;align=left;verticalAlign=top;strokeColor=default;">
      <mxGeometry x="3151" y="257" as="geometry" />
    </mxCell>
    <mxCell id="label719" parent="edge119" vertex="1" connectable="0" value="filmValidator" style="edgeLabel;resizable=0;html=1;align=left;verticalAlign=top;strokeColor=default;">
      <mxGeometry x="3163" y="298" as="geometry" />
    </mxCell>
    <mxCell id="edge102" edge="1" value="" parent="1" source="node14" target="node56" style="html=1;rounded=1;edgeStyle=orthogonalEdgeStyle;dashed=0;startArrow=diamondThinstartSize=12;endArrow=openThin;endSize=12;strokeColor=#595959;exitX=0.167;exitY=0.000;exitDx=0;exitDy=0;entryX=0.750;entryY=1.000;entryDx=0;entryDy=0;">
      <mxGeometry width="50" height="50" relative="1" as="geometry">
        <Array as="points">
          <mxPoint x="4075" y="1434" />
          <mxPoint x="4000" y="1434" />
          <mxPoint x="4000" y="854" />
          <mxPoint x="3327" y="854" />
        </Array>
      </mxGeometry>
    </mxCell>
    <mxCell id="label612" parent="edge102" vertex="1" connectable="0" value="1" style="edgeLabel;resizable=0;html=1;align=left;verticalAlign=top;strokeColor=default;">
      <mxGeometry x="4032" y="1416" as="geometry" />
    </mxCell>
    <mxCell id="label616" parent="edge102" vertex="1" connectable="0" value="1" style="edgeLabel;resizable=0;html=1;align=left;verticalAlign=top;strokeColor=default;">
      <mxGeometry x="3315" y="449" as="geometry" />
    </mxCell>
    <mxCell id="label617" parent="edge102" vertex="1" connectable="0" value="filmsController" style="edgeLabel;resizable=0;html=1;align=left;verticalAlign=top;strokeColor=default;">
      <mxGeometry x="3327" y="449" as="geometry" />
    </mxCell>
    <mxCell id="edge111" edge="1" value="" parent="1" source="node14" target="node59" style="html=1;rounded=1;edgeStyle=orthogonalEdgeStyle;dashed=0;startArrow=diamondThinstartSize=12;endArrow=openThin;endSize=12;strokeColor=#595959;exitX=0.167;exitY=0.000;exitDx=0;exitDy=0;entryX=0.750;entryY=1.000;entryDx=0;entryDy=0;">
      <mxGeometry width="50" height="50" relative="1" as="geometry">
        <Array as="points">
          <mxPoint x="4075" y="1434" />
          <mxPoint x="4000" y="1434" />
          <mxPoint x="4000" y="954" />
          <mxPoint x="3320" y="954" />
          <mxPoint x="3320" y="534" />
          <mxPoint x="1129" y="534" />
        </Array>
      </mxGeometry>
    </mxCell>
    <mxCell id="label666" parent="edge111" vertex="1" connectable="0" value="1" style="edgeLabel;resizable=0;html=1;align=left;verticalAlign=top;strokeColor=default;">
      <mxGeometry x="4069" y="1416" as="geometry" />
    </mxCell>
    <mxCell id="label670" parent="edge111" vertex="1" connectable="0" value="1" style="edgeLabel;resizable=0;html=1;align=left;verticalAlign=top;strokeColor=default;">
      <mxGeometry x="1117" y="525" as="geometry" />
    </mxCell>
    <mxCell id="label671" parent="edge111" vertex="1" connectable="0" value="filmsRepository" style="edgeLabel;resizable=0;html=1;align=left;verticalAlign=top;strokeColor=default;">
      <mxGeometry x="1169" y="508" as="geometry" />
    </mxCell>
    <mxCell id="edge19" edge="1" value="" parent="1" source="node14" target="node0" style="html=1;rounded=1;edgeStyle=orthogonalEdgeStyle;dashed=0;startArrow=diamondThinstartSize=12;endArrow=openThin;endSize=12;strokeColor=#595959;exitX=0.167;exitY=0.000;exitDx=0;exitDy=0;entryX=0.250;entryY=1.000;entryDx=0;entryDy=0;">
      <mxGeometry width="50" height="50" relative="1" as="geometry">
        <Array as="points">
          <mxPoint x="4075" y="1434" />
          <mxPoint x="4000" y="1434" />
          <mxPoint x="4000" y="594" />
          <mxPoint x="4400" y="594" />
          <mxPoint x="4400" y="514" />
          <mxPoint x="5241" y="514" />
        </Array>
      </mxGeometry>
    </mxCell>
    <mxCell id="label114" parent="edge19" vertex="1" connectable="0" value="1" style="edgeLabel;resizable=0;html=1;align=left;verticalAlign=top;strokeColor=default;">
      <mxGeometry x="4063" y="1435" as="geometry" />
    </mxCell>
    <mxCell id="label118" parent="edge19" vertex="1" connectable="0" value="1" style="edgeLabel;resizable=0;html=1;align=left;verticalAlign=top;strokeColor=default;">
      <mxGeometry x="5189" y="319" as="geometry" />
    </mxCell>
    <mxCell id="label119" parent="edge19" vertex="1" connectable="0" value="inputReader" style="edgeLabel;resizable=0;html=1;align=left;verticalAlign=top;strokeColor=default;">
      <mxGeometry x="5241" y="271" as="geometry" />
    </mxCell>
    <mxCell id="edge22" edge="1" value="" parent="1" source="node14" target="node33" style="html=1;rounded=1;edgeStyle=orthogonalEdgeStyle;dashed=1;startArrow=none;endArrow=openThin;endSize=12;strokeColor=#595959;exitX=0.500;exitY=0.000;exitDx=0;exitDy=0;entryX=0.500;entryY=1.001;entryDx=0;entryDy=0;">
      <mxGeometry width="50" height="50" relative="1" as="geometry">
        <Array as="points">
          <mxPoint x="4160" y="1434" />
          <mxPoint x="4120" y="1434" />
          <mxPoint x="4120" y="734" />
          <mxPoint x="3880" y="734" />
        </Array>
      </mxGeometry>
    </mxCell>
    <mxCell id="label134" parent="edge22" vertex="1" connectable="0" value="«create»" style="edgeLabel;resizable=0;html=1;align=left;verticalAlign=top;strokeColor=default;">
      <mxGeometry x="4068" y="1075" as="geometry" />
    </mxCell>
    <mxCell id="edge61" edge="1" value="" parent="1" source="node14" target="node18" style="html=1;rounded=1;edgeStyle=orthogonalEdgeStyle;dashed=1;startArrow=none;endArrow=openThin;endSize=12;strokeColor=#595959;exitX=0.500;exitY=0.000;exitDx=0;exitDy=0;entryX=0.500;entryY=1.000;entryDx=0;entryDy=0;">
      <mxGeometry width="50" height="50" relative="1" as="geometry">
        <Array as="points">
          <mxPoint x="4160" y="1434" />
          <mxPoint x="4120" y="1434" />
        </Array>
      </mxGeometry>
    </mxCell>
    <mxCell id="label368" parent="edge61" vertex="1" connectable="0" value="«create»" style="edgeLabel;resizable=0;html=1;align=left;verticalAlign=top;strokeColor=default;">
      <mxGeometry x="4108" y="1425" as="geometry" />
    </mxCell>
    <mxCell id="edge104" edge="1" value="" parent="1" source="node14" target="node58" style="html=1;rounded=1;edgeStyle=orthogonalEdgeStyle;dashed=1;startArrow=none;endArrow=openThin;endSize=12;strokeColor=#595959;exitX=0.500;exitY=0.000;exitDx=0;exitDy=0;entryX=0.500;entryY=1.000;entryDx=0;entryDy=0;">
      <mxGeometry width="50" height="50" relative="1" as="geometry">
        <Array as="points">
          <mxPoint x="4160" y="1434" />
          <mxPoint x="4120" y="1434" />
          <mxPoint x="4120" y="734" />
          <mxPoint x="4000" y="734" />
        </Array>
      </mxGeometry>
    </mxCell>
    <mxCell id="label626" parent="edge104" vertex="1" connectable="0" value="«create»" style="edgeLabel;resizable=0;html=1;align=left;verticalAlign=top;strokeColor=default;">
      <mxGeometry x="4068" y="1250" as="geometry" />
    </mxCell>
    <mxCell id="edge27" edge="1" value="" parent="1" source="node14" target="node16" style="html=1;rounded=1;edgeStyle=orthogonalEdgeStyle;dashed=1;startArrow=none;endArrow=openThin;endSize=12;strokeColor=#595959;exitX=0.500;exitY=0.000;exitDx=0;exitDy=0;entryX=0.750;entryY=1.000;entryDx=0;entryDy=0;">
      <mxGeometry width="50" height="50" relative="1" as="geometry">
        <Array as="points">
          <mxPoint x="4160" y="1434" />
          <mxPoint x="4120" y="1434" />
          <mxPoint x="4120" y="714" />
          <mxPoint x="4800" y="714" />
          <mxPoint x="4800" y="494" />
          <mxPoint x="4643" y="494" />
        </Array>
      </mxGeometry>
    </mxCell>
    <mxCell id="label164" parent="edge27" vertex="1" connectable="0" value="«create»" style="edgeLabel;resizable=0;html=1;align=left;verticalAlign=top;strokeColor=default;">
      <mxGeometry x="4434" y="695" as="geometry" />
    </mxCell>
    <mxCell id="edge75" edge="1" value="" parent="1" source="node14" target="node16" style="html=1;rounded=1;edgeStyle=orthogonalEdgeStyle;dashed=0;startArrow=diamondThinstartSize=12;endArrow=openThin;endSize=12;strokeColor=#595959;exitX=0.167;exitY=0.000;exitDx=0;exitDy=0;entryX=0.250;entryY=1.000;entryDx=0;entryDy=0;">
      <mxGeometry width="50" height="50" relative="1" as="geometry">
        <Array as="points">
          <mxPoint x="4075" y="1434" />
          <mxPoint x="4000" y="1434" />
          <mxPoint x="4000" y="574" />
          <mxPoint x="4320" y="574" />
          <mxPoint x="4320" y="534" />
          <mxPoint x="4557" y="534" />
        </Array>
      </mxGeometry>
    </mxCell>
    <mxCell id="label450" parent="edge75" vertex="1" connectable="0" value="1" style="edgeLabel;resizable=0;html=1;align=left;verticalAlign=top;strokeColor=default;">
      <mxGeometry x="4051" y="1416" as="geometry" />
    </mxCell>
    <mxCell id="label454" parent="edge75" vertex="1" connectable="0" value="*" style="edgeLabel;resizable=0;html=1;align=left;verticalAlign=top;strokeColor=default;">
      <mxGeometry x="4547" y="243" as="geometry" />
    </mxCell>
    <mxCell id="label455" parent="edge75" vertex="1" connectable="0" value="menuItems" style="edgeLabel;resizable=0;html=1;align=left;verticalAlign=top;strokeColor=default;">
      <mxGeometry x="4597" y="303" as="geometry" />
    </mxCell>
    <mxCell id="edge58" edge="1" value="" parent="1" source="node13" target="node47" style="html=1;rounded=1;edgeStyle=orthogonalEdgeStyle;dashed=1;startArrow=none;endArrow=openThin;endSize=12;strokeColor=#595959;exitX=0.500;exitY=0.000;exitDx=0;exitDy=0;entryX=0.500;entryY=1.001;entryDx=0;entryDy=0;">
      <mxGeometry width="50" height="50" relative="1" as="geometry">
        <Array as="points" />
      </mxGeometry>
    </mxCell>
    <mxCell id="label350" parent="edge58" vertex="1" connectable="0" value="«create»" style="edgeLabel;resizable=0;html=1;align=left;verticalAlign=top;strokeColor=default;">
      <mxGeometry x="-132" y="1866" as="geometry" />
    </mxCell>
    <mxCell id="edge110" edge="1" value="" parent="1" source="node13" target="node59" style="html=1;rounded=1;edgeStyle=orthogonalEdgeStyle;dashed=1;startArrow=none;endArrow=block;endSize=12;strokeColor=#008200;exitX=0.167;exitY=0.000;exitDx=0;exitDy=0;entryX=0.250;entryY=1.000;entryDx=0;entryDy=0;">
      <mxGeometry width="50" height="50" relative="1" as="geometry">
        <Array as="points">
          <mxPoint x="-172" y="2154" />
          <mxPoint x="-260" y="2154" />
          <mxPoint x="-260" y="854" />
          <mxPoint x="991" y="854" />
        </Array>
      </mxGeometry>
    </mxCell>
    <mxCell id="edge2" edge="1" value="" parent="1" source="node13" target="node34" style="html=1;rounded=1;edgeStyle=orthogonalEdgeStyle;dashed=0;startArrow=none;endArrow=block;endSize=12;strokeColor=#000082;exitX=0.833;exitY=0.000;exitDx=0;exitDy=0;entryX=0.250;entryY=1.000;entryDx=0;entryDy=0;">
      <mxGeometry width="50" height="50" relative="1" as="geometry">
        <Array as="points">
          <mxPoint x="12" y="1914" />
          <mxPoint x="460" y="1914" />
          <mxPoint x="460" y="1254" />
          <mxPoint x="450" y="1254" />
        </Array>
      </mxGeometry>
    </mxCell>
    <mxCell id="edge84" edge="1" value="" parent="1" source="node13" target="node34" style="html=1;rounded=1;edgeStyle=orthogonalEdgeStyle;dashed=1;startArrow=none;endArrow=openThin;endSize=12;strokeColor=#595959;exitX=0.500;exitY=0.000;exitDx=0;exitDy=0;entryX=0.750;entryY=1.000;entryDx=0;entryDy=0;">
      <mxGeometry width="50" height="50" relative="1" as="geometry">
        <Array as="points">
          <mxPoint x="-80" y="1654" />
          <mxPoint x="620" y="1654" />
          <mxPoint x="620" y="1254" />
          <mxPoint x="630" y="1254" />
        </Array>
      </mxGeometry>
    </mxCell>
    <mxCell id="label506" parent="edge84" vertex="1" connectable="0" value="«create»" style="edgeLabel;resizable=0;html=1;align=left;verticalAlign=top;strokeColor=default;">
      <mxGeometry x="568" y="1445" as="geometry" />
    </mxCell>
    <mxCell id="edge31" edge="1" value="" parent="1" source="node13" target="node23" style="html=1;rounded=1;edgeStyle=orthogonalEdgeStyle;dashed=1;startArrow=none;endArrow=openThin;endSize=12;strokeColor=#595959;exitX=0.500;exitY=0.000;exitDx=0;exitDy=0;entryX=0.500;entryY=1.000;entryDx=0;entryDy=0;">
      <mxGeometry width="50" height="50" relative="1" as="geometry">
        <Array as="points">
          <mxPoint x="-80" y="1594" />
          <mxPoint x="100" y="1594" />
        </Array>
      </mxGeometry>
    </mxCell>
    <mxCell id="label188" parent="edge31" vertex="1" connectable="0" value="«create»" style="edgeLabel;resizable=0;html=1;align=left;verticalAlign=top;strokeColor=default;">
      <mxGeometry x="-16" y="1575" as="geometry" />
    </mxCell>
    <mxCell id="edge3" edge="1" value="" parent="1" source="node34" target="node41" style="html=1;rounded=1;edgeStyle=orthogonalEdgeStyle;dashed=1;startArrow=none;endArrow=openThin;endSize=12;strokeColor=#595959;exitX=0.500;exitY=0.000;exitDx=0;exitDy=0;entryX=0.500;entryY=1.001;entryDx=0;entryDy=0;">
      <mxGeometry width="50" height="50" relative="1" as="geometry">
        <Array as="points" />
      </mxGeometry>
    </mxCell>
    <mxCell id="edge10" edge="1" value="" parent="1" source="node29" target="node36" style="html=1;rounded=1;edgeStyle=orthogonalEdgeStyle;dashed=0;startArrow=none;endArrow=block;endSize=12;strokeColor=#000082;exitX=0.833;exitY=0.000;exitDx=0;exitDy=0;entryX=0.875;entryY=1.000;entryDx=0;entryDy=0;">
      <mxGeometry width="50" height="50" relative="1" as="geometry">
        <Array as="points">
          <mxPoint x="4902" y="2134" />
          <mxPoint x="5160" y="2134" />
          <mxPoint x="5160" y="914" />
          <mxPoint x="5540" y="914" />
          <mxPoint x="5540" y="74" />
          <mxPoint x="5500" y="74" />
          <mxPoint x="5500" y="14" />
          <mxPoint x="4972" y="14" />
        </Array>
      </mxGeometry>
    </mxCell>
    <mxCell id="edge42" edge="1" value="" parent="1" source="node29" target="node36" style="html=1;rounded=1;edgeStyle=orthogonalEdgeStyle;dashed=1;startArrow=none;endArrow=openThin;endSize=12;strokeColor=#595959;exitX=0.500;exitY=0.000;exitDx=0;exitDy=0;entryX=0.625;entryY=1.000;entryDx=0;entryDy=0;">
      <mxGeometry width="50" height="50" relative="1" as="geometry">
        <Array as="points">
          <mxPoint x="4760" y="1894" />
          <mxPoint x="4840" y="1894" />
          <mxPoint x="4840" y="1174" />
          <mxPoint x="4920" y="1174" />
          <mxPoint x="4920" y="14" />
          <mxPoint x="4911" y="14" />
        </Array>
      </mxGeometry>
    </mxCell>
    <mxCell id="label254" parent="edge42" vertex="1" connectable="0" value="«create»" style="edgeLabel;resizable=0;html=1;align=left;verticalAlign=top;strokeColor=default;">
      <mxGeometry x="4788" y="1165" as="geometry" />
    </mxCell>
    <mxCell id="edge101" edge="1" value="" parent="1" source="node29" target="node60" style="html=1;rounded=1;edgeStyle=orthogonalEdgeStyle;dashed=0;startArrow=diamondThinstartSize=12;endArrow=openThin;endSize=12;strokeColor=#595959;exitX=0.167;exitY=0.000;exitDx=0;exitDy=0;entryX=0.750;entryY=1.001;entryDx=0;entryDy=0;">
      <mxGeometry width="50" height="50" relative="1" as="geometry">
        <Array as="points">
          <mxPoint x="4618" y="2134" />
          <mxPoint x="4280" y="2134" />
          <mxPoint x="4280" y="1674" />
          <mxPoint x="3960" y="1674" />
          <mxPoint x="3960" y="1014" />
          <mxPoint x="3360" y="1014" />
          <mxPoint x="3360" y="494" />
          <mxPoint x="2816" y="494" />
        </Array>
      </mxGeometry>
    </mxCell>
    <mxCell id="label606" parent="edge101" vertex="1" connectable="0" value="1" style="edgeLabel;resizable=0;html=1;align=left;verticalAlign=top;strokeColor=default;">
      <mxGeometry x="4528" y="2116" as="geometry" />
    </mxCell>
    <mxCell id="label610" parent="edge101" vertex="1" connectable="0" value="1" style="edgeLabel;resizable=0;html=1;align=left;verticalAlign=top;strokeColor=default;">
      <mxGeometry x="2804" y="485" as="geometry" />
    </mxCell>
    <mxCell id="label611" parent="edge101" vertex="1" connectable="0" value="filmIdService" style="edgeLabel;resizable=0;html=1;align=left;verticalAlign=top;strokeColor=default;">
      <mxGeometry x="2914" y="494" as="geometry" />
    </mxCell>
    <mxCell id="edge120" edge="1" value="" parent="1" source="node29" target="node52" style="html=1;rounded=1;edgeStyle=orthogonalEdgeStyle;dashed=0;startArrow=diamondThinstartSize=12;endArrow=openThin;endSize=12;strokeColor=#595959;exitX=0.167;exitY=0.000;exitDx=0;exitDy=0;entryX=0.750;entryY=1.000;entryDx=0;entryDy=0;">
      <mxGeometry width="50" height="50" relative="1" as="geometry">
        <Array as="points">
          <mxPoint x="4618" y="2134" />
          <mxPoint x="4280" y="2134" />
          <mxPoint x="4280" y="1674" />
          <mxPoint x="4000" y="1674" />
          <mxPoint x="4000" y="794" />
          <mxPoint x="3880" y="794" />
          <mxPoint x="3880" y="474" />
          <mxPoint x="3163" y="474" />
        </Array>
      </mxGeometry>
    </mxCell>
    <mxCell id="label720" parent="edge120" vertex="1" connectable="0" value="1" style="edgeLabel;resizable=0;html=1;align=left;verticalAlign=top;strokeColor=default;">
      <mxGeometry x="4606" y="2125" as="geometry" />
    </mxCell>
    <mxCell id="label724" parent="edge120" vertex="1" connectable="0" value="1" style="edgeLabel;resizable=0;html=1;align=left;verticalAlign=top;strokeColor=default;">
      <mxGeometry x="3151" y="298" as="geometry" />
    </mxCell>
    <mxCell id="label725" parent="edge120" vertex="1" connectable="0" value="filmValidator" style="edgeLabel;resizable=0;html=1;align=left;verticalAlign=top;strokeColor=default;">
      <mxGeometry x="3163" y="242" as="geometry" />
    </mxCell>
    <mxCell id="edge33" edge="1" value="" parent="1" source="node29" target="node14" style="html=1;rounded=1;edgeStyle=orthogonalEdgeStyle;dashed=0;startArrow=diamondThinstartSize=12;endArrow=openThin;endSize=12;strokeColor=#595959;exitX=0.167;exitY=0.000;exitDx=0;exitDy=0;entryX=0.250;entryY=1.000;entryDx=0;entryDy=0;">
      <mxGeometry width="50" height="50" relative="1" as="geometry">
        <Array as="points">
          <mxPoint x="4618" y="2134" />
          <mxPoint x="4280" y="2134" />
          <mxPoint x="4280" y="1674" />
          <mxPoint x="4097" y="1674" />
        </Array>
      </mxGeometry>
    </mxCell>
    <mxCell id="label198" parent="edge33" vertex="1" connectable="0" value="1" style="edgeLabel;resizable=0;html=1;align=left;verticalAlign=top;strokeColor=default;">
      <mxGeometry x="4566" y="2142" as="geometry" />
    </mxCell>
    <mxCell id="label202" parent="edge33" vertex="1" connectable="0" value="1" style="edgeLabel;resizable=0;html=1;align=left;verticalAlign=top;strokeColor=default;">
      <mxGeometry x="4182" y="1656" as="geometry" />
    </mxCell>
    <mxCell id="label203" parent="edge33" vertex="1" connectable="0" value="filmsMenu" style="edgeLabel;resizable=0;html=1;align=left;verticalAlign=top;strokeColor=default;">
      <mxGeometry x="4280" y="1665" as="geometry" />
    </mxCell>
    <mxCell id="edge78" edge="1" value="" parent="1" source="node29" target="node0" style="html=1;rounded=1;edgeStyle=orthogonalEdgeStyle;dashed=0;startArrow=diamondThinstartSize=12;endArrow=openThin;endSize=12;strokeColor=#595959;exitX=0.167;exitY=0.000;exitDx=0;exitDy=0;entryX=0.250;entryY=1.000;entryDx=0;entryDy=0;">
      <mxGeometry width="50" height="50" relative="1" as="geometry">
        <Array as="points">
          <mxPoint x="4618" y="2134" />
          <mxPoint x="4280" y="2134" />
          <mxPoint x="4280" y="1674" />
          <mxPoint x="4360" y="1674" />
          <mxPoint x="4360" y="1154" />
          <mxPoint x="4400" y="1154" />
          <mxPoint x="4400" y="514" />
          <mxPoint x="5241" y="514" />
        </Array>
      </mxGeometry>
    </mxCell>
    <mxCell id="label468" parent="edge78" vertex="1" connectable="0" value="1" style="edgeLabel;resizable=0;html=1;align=left;verticalAlign=top;strokeColor=default;">
      <mxGeometry x="4443" y="2116" as="geometry" />
    </mxCell>
    <mxCell id="label472" parent="edge78" vertex="1" connectable="0" value="1" style="edgeLabel;resizable=0;html=1;align=left;verticalAlign=top;strokeColor=default;">
      <mxGeometry x="5229" y="271" as="geometry" />
    </mxCell>
    <mxCell id="label473" parent="edge78" vertex="1" connectable="0" value="inputReader" style="edgeLabel;resizable=0;html=1;align=left;verticalAlign=top;strokeColor=default;">
      <mxGeometry x="5241" y="256" as="geometry" />
    </mxCell>
    <mxCell id="edge72" edge="1" value="" parent="1" source="node29" target="node31" style="html=1;rounded=1;edgeStyle=orthogonalEdgeStyle;dashed=1;startArrow=none;endArrow=openThin;endSize=12;strokeColor=#595959;exitX=0.500;exitY=0.000;exitDx=0;exitDy=0;entryX=0.500;entryY=1.000;entryDx=0;entryDy=0;">
      <mxGeometry width="50" height="50" relative="1" as="geometry">
        <Array as="points">
          <mxPoint x="4760" y="1894" />
          <mxPoint x="4580" y="1894" />
        </Array>
      </mxGeometry>
    </mxCell>
    <mxCell id="label434" parent="edge72" vertex="1" connectable="0" value="«create»" style="edgeLabel;resizable=0;html=1;align=left;verticalAlign=top;strokeColor=default;">
      <mxGeometry x="4644" y="1875" as="geometry" />
    </mxCell>
    <mxCell id="edge56" edge="1" value="" parent="1" source="node29" target="node16" style="html=1;rounded=1;edgeStyle=orthogonalEdgeStyle;dashed=0;startArrow=diamondThinstartSize=12;endArrow=openThin;endSize=12;strokeColor=#595959;exitX=0.167;exitY=0.000;exitDx=0;exitDy=0;entryX=0.250;entryY=1.000;entryDx=0;entryDy=0;">
      <mxGeometry width="50" height="50" relative="1" as="geometry">
        <Array as="points">
          <mxPoint x="4618" y="2134" />
          <mxPoint x="4280" y="2134" />
          <mxPoint x="4280" y="1674" />
          <mxPoint x="4320" y="1674" />
          <mxPoint x="4320" y="534" />
          <mxPoint x="4557" y="534" />
        </Array>
      </mxGeometry>
    </mxCell>
    <mxCell id="label336" parent="edge56" vertex="1" connectable="0" value="1" style="edgeLabel;resizable=0;html=1;align=left;verticalAlign=top;strokeColor=default;">
      <mxGeometry x="4606" y="2145" as="geometry" />
    </mxCell>
    <mxCell id="label340" parent="edge56" vertex="1" connectable="0" value="*" style="edgeLabel;resizable=0;html=1;align=left;verticalAlign=top;strokeColor=default;">
      <mxGeometry x="4507" y="303" as="geometry" />
    </mxCell>
    <mxCell id="label341" parent="edge56" vertex="1" connectable="0" value="menuItems" style="edgeLabel;resizable=0;html=1;align=left;verticalAlign=top;strokeColor=default;">
      <mxGeometry x="4597" y="243" as="geometry" />
    </mxCell>
    <mxCell id="edge70" edge="1" value="" parent="1" source="node29" target="node16" style="html=1;rounded=1;edgeStyle=orthogonalEdgeStyle;dashed=1;startArrow=none;endArrow=openThin;endSize=12;strokeColor=#595959;exitX=0.500;exitY=0.000;exitDx=0;exitDy=0;entryX=0.750;entryY=1.000;entryDx=0;entryDy=0;">
      <mxGeometry width="50" height="50" relative="1" as="geometry">
        <Array as="points">
          <mxPoint x="4760" y="1894" />
          <mxPoint x="4800" y="1894" />
          <mxPoint x="4800" y="494" />
          <mxPoint x="4643" y="494" />
        </Array>
      </mxGeometry>
    </mxCell>
    <mxCell id="label422" parent="edge70" vertex="1" connectable="0" value="«create»" style="edgeLabel;resizable=0;html=1;align=left;verticalAlign=top;strokeColor=default;">
      <mxGeometry x="4748" y="1185" as="geometry" />
    </mxCell>
    <mxCell id="edge4" edge="1" value="" parent="1" source="node48" target="node36" style="html=1;rounded=1;edgeStyle=orthogonalEdgeStyle;dashed=0;startArrow=none;endArrow=block;endSize=12;strokeColor=#000082;exitX=0.833;exitY=0.000;exitDx=0;exitDy=0;entryX=0.875;entryY=1.000;entryDx=0;entryDy=0;">
      <mxGeometry width="50" height="50" relative="1" as="geometry">
        <Array as="points">
          <mxPoint x="5575" y="1014" />
          <mxPoint x="5620" y="1014" />
          <mxPoint x="5620" y="74" />
          <mxPoint x="5500" y="74" />
          <mxPoint x="5500" y="14" />
          <mxPoint x="4972" y="14" />
        </Array>
      </mxGeometry>
    </mxCell>
    <mxCell id="edge28" edge="1" value="" parent="1" source="node48" target="node36" style="html=1;rounded=1;edgeStyle=orthogonalEdgeStyle;dashed=1;startArrow=none;endArrow=openThin;endSize=12;strokeColor=#595959;exitX=0.167;exitY=0.000;exitDx=0;exitDy=0;entryX=0.625;entryY=1.000;entryDx=0;entryDy=0;">
      <mxGeometry width="50" height="50" relative="1" as="geometry">
        <Array as="points">
          <mxPoint x="5265" y="1434" />
          <mxPoint x="5260" y="1434" />
          <mxPoint x="5260" y="954" />
          <mxPoint x="5580" y="954" />
          <mxPoint x="5580" y="94" />
          <mxPoint x="4920" y="94" />
          <mxPoint x="4920" y="14" />
          <mxPoint x="4911" y="14" />
        </Array>
      </mxGeometry>
    </mxCell>
    <mxCell id="label170" parent="edge28" vertex="1" connectable="0" value="«create»" style="edgeLabel;resizable=0;html=1;align=left;verticalAlign=top;strokeColor=default;">
      <mxGeometry x="5528" y="515" as="geometry" />
    </mxCell>
    <mxCell id="edge63" edge="1" value="" parent="1" source="node48" target="node0" style="html=1;rounded=1;edgeStyle=orthogonalEdgeStyle;dashed=0;startArrow=diamondThinstartSize=12;endArrow=openThin;endSize=12;strokeColor=#595959;exitX=0.500;exitY=0.000;exitDx=0;exitDy=0;entryX=0.250;entryY=1.000;entryDx=0;entryDy=0;">
      <mxGeometry width="50" height="50" relative="1" as="geometry">
        <Array as="points">
          <mxPoint x="5420" y="1434" />
          <mxPoint x="5500" y="1434" />
          <mxPoint x="5500" y="574" />
          <mxPoint x="4400" y="574" />
          <mxPoint x="4400" y="514" />
          <mxPoint x="5241" y="514" />
        </Array>
      </mxGeometry>
    </mxCell>
    <mxCell id="label378" parent="edge63" vertex="1" connectable="0" value="1" style="edgeLabel;resizable=0;html=1;align=left;verticalAlign=top;strokeColor=default;">
      <mxGeometry x="5454" y="1416" as="geometry" />
    </mxCell>
    <mxCell id="label382" parent="edge63" vertex="1" connectable="0" value="1" style="edgeLabel;resizable=0;html=1;align=left;verticalAlign=top;strokeColor=default;">
      <mxGeometry x="5229" y="319" as="geometry" />
    </mxCell>
    <mxCell id="label383" parent="edge63" vertex="1" connectable="0" value="inputReader" style="edgeLabel;resizable=0;html=1;align=left;verticalAlign=top;strokeColor=default;">
      <mxGeometry x="5241" y="319" as="geometry" />
    </mxCell>
    <mxCell id="edge112" edge="1" value="" parent="1" source="node48" target="node49" style="html=1;rounded=1;edgeStyle=orthogonalEdgeStyle;dashed=0;startArrow=diamondThinstartSize=12;endArrow=openThin;endSize=12;strokeColor=#595959;exitX=0.500;exitY=0.000;exitDx=0;exitDy=0;entryX=0.250;entryY=1.001;entryDx=0;entryDy=0;">
      <mxGeometry width="50" height="50" relative="1" as="geometry">
        <Array as="points">
          <mxPoint x="5420" y="1434" />
          <mxPoint x="5500" y="1434" />
          <mxPoint x="5500" y="974" />
          <mxPoint x="6279" y="974" />
        </Array>
      </mxGeometry>
    </mxCell>
    <mxCell id="label672" parent="edge112" vertex="1" connectable="0" value="1" style="edgeLabel;resizable=0;html=1;align=left;verticalAlign=top;strokeColor=default;">
      <mxGeometry x="5434" y="1416" as="geometry" />
    </mxCell>
    <mxCell id="label676" parent="edge112" vertex="1" connectable="0" value="1" style="edgeLabel;resizable=0;html=1;align=left;verticalAlign=top;strokeColor=default;">
      <mxGeometry x="6267" y="243" as="geometry" />
    </mxCell>
    <mxCell id="label677" parent="edge112" vertex="1" connectable="0" value="registrationService" style="edgeLabel;resizable=0;html=1;align=left;verticalAlign=top;strokeColor=default;">
      <mxGeometry x="6279" y="243" as="geometry" />
    </mxCell>
    <mxCell id="edge98" edge="1" value="" parent="1" source="node48" target="node53" style="html=1;rounded=1;edgeStyle=orthogonalEdgeStyle;dashed=0;startArrow=diamondThinstartSize=12;endArrow=openThin;endSize=12;strokeColor=#595959;exitX=0.500;exitY=0.000;exitDx=0;exitDy=0;entryX=0.250;entryY=1.000;entryDx=0;entryDy=0;">
      <mxGeometry width="50" height="50" relative="1" as="geometry">
        <Array as="points">
          <mxPoint x="5420" y="1434" />
          <mxPoint x="5500" y="1434" />
          <mxPoint x="5500" y="974" />
          <mxPoint x="6082" y="974" />
        </Array>
      </mxGeometry>
    </mxCell>
    <mxCell id="label588" parent="edge98" vertex="1" connectable="0" value="1" style="edgeLabel;resizable=0;html=1;align=left;verticalAlign=top;strokeColor=default;">
      <mxGeometry x="5488" y="1425" as="geometry" />
    </mxCell>
    <mxCell id="label592" parent="edge98" vertex="1" connectable="0" value="1" style="edgeLabel;resizable=0;html=1;align=left;verticalAlign=top;strokeColor=default;">
      <mxGeometry x="6070" y="463" as="geometry" />
    </mxCell>
    <mxCell id="label593" parent="edge98" vertex="1" connectable="0" value="registrationValidator" style="edgeLabel;resizable=0;html=1;align=left;verticalAlign=top;strokeColor=default;">
      <mxGeometry x="6082" y="463" as="geometry" />
    </mxCell>
    <mxCell id="edge49" edge="1" value="" parent="1" source="node48" target="node16" style="html=1;rounded=1;edgeStyle=orthogonalEdgeStyle;dashed=1;startArrow=none;endArrow=openThin;endSize=12;strokeColor=#595959;exitX=0.167;exitY=0.000;exitDx=0;exitDy=0;entryX=0.750;entryY=1.000;entryDx=0;entryDy=0;">
      <mxGeometry width="50" height="50" relative="1" as="geometry">
        <Array as="points">
          <mxPoint x="5265" y="1434" />
          <mxPoint x="5260" y="1434" />
          <mxPoint x="5260" y="934" />
          <mxPoint x="4800" y="934" />
          <mxPoint x="4800" y="494" />
          <mxPoint x="4643" y="494" />
        </Array>
      </mxGeometry>
    </mxCell>
    <mxCell id="label296" parent="edge49" vertex="1" connectable="0" value="«create»" style="edgeLabel;resizable=0;html=1;align=left;verticalAlign=top;strokeColor=default;">
      <mxGeometry x="5004" y="915" as="geometry" />
    </mxCell>
    <mxCell id="edge51" edge="1" value="" parent="1" source="node48" target="node16" style="html=1;rounded=1;edgeStyle=orthogonalEdgeStyle;dashed=0;startArrow=diamondThinstartSize=12;endArrow=openThin;endSize=12;strokeColor=#595959;exitX=0.500;exitY=0.000;exitDx=0;exitDy=0;entryX=0.250;entryY=1.000;entryDx=0;entryDy=0;">
      <mxGeometry width="50" height="50" relative="1" as="geometry">
        <Array as="points">
          <mxPoint x="5420" y="1434" />
          <mxPoint x="5500" y="1434" />
          <mxPoint x="5500" y="614" />
          <mxPoint x="4320" y="614" />
          <mxPoint x="4320" y="534" />
          <mxPoint x="4557" y="534" />
        </Array>
      </mxGeometry>
    </mxCell>
    <mxCell id="label306" parent="edge51" vertex="1" connectable="0" value="1" style="edgeLabel;resizable=0;html=1;align=left;verticalAlign=top;strokeColor=default;">
      <mxGeometry x="5474" y="1416" as="geometry" />
    </mxCell>
    <mxCell id="label310" parent="edge51" vertex="1" connectable="0" value="*" style="edgeLabel;resizable=0;html=1;align=left;verticalAlign=top;strokeColor=default;">
      <mxGeometry x="4507" y="243" as="geometry" />
    </mxCell>
    <mxCell id="label311" parent="edge51" vertex="1" connectable="0" value="menuItems" style="edgeLabel;resizable=0;html=1;align=left;verticalAlign=top;strokeColor=default;">
      <mxGeometry x="4557" y="243" as="geometry" />
    </mxCell>
    <mxCell id="edge13" edge="1" value="" parent="1" source="node31" target="node36" style="html=1;rounded=1;edgeStyle=orthogonalEdgeStyle;dashed=0;startArrow=none;endArrow=block;endSize=12;strokeColor=#000082;exitX=0.833;exitY=0.000;exitDx=0;exitDy=0;entryX=0.875;entryY=1.000;entryDx=0;entryDy=0;">
      <mxGeometry width="50" height="50" relative="1" as="geometry">
        <Array as="points">
          <mxPoint x="4708" y="914" />
          <mxPoint x="4880" y="914" />
          <mxPoint x="4880" y="74" />
          <mxPoint x="5500" y="74" />
          <mxPoint x="5500" y="14" />
          <mxPoint x="4972" y="14" />
        </Array>
      </mxGeometry>
    </mxCell>
    <mxCell id="edge18" edge="1" value="" parent="1" source="node31" target="node36" style="html=1;rounded=1;edgeStyle=orthogonalEdgeStyle;dashed=1;startArrow=none;endArrow=openThin;endSize=12;strokeColor=#595959;exitX=0.500;exitY=0.000;exitDx=0;exitDy=0;entryX=0.625;entryY=1.000;entryDx=0;entryDy=0;">
      <mxGeometry width="50" height="50" relative="1" as="geometry">
        <Array as="points">
          <mxPoint x="4580" y="554" />
          <mxPoint x="4280" y="554" />
          <mxPoint x="4280" y="94" />
          <mxPoint x="4920" y="94" />
          <mxPoint x="4920" y="14" />
          <mxPoint x="4911" y="14" />
        </Array>
      </mxGeometry>
    </mxCell>
    <mxCell id="label110" parent="edge18" vertex="1" connectable="0" value="«create»" style="edgeLabel;resizable=0;html=1;align=left;verticalAlign=top;strokeColor=default;">
      <mxGeometry x="4574" y="75" as="geometry" />
    </mxCell>
    <mxCell id="edge67" edge="1" value="" parent="1" source="node31" target="node0" style="html=1;rounded=1;edgeStyle=orthogonalEdgeStyle;dashed=0;startArrow=diamondThinstartSize=12;endArrow=openThin;endSize=12;strokeColor=#595959;exitX=0.167;exitY=0.000;exitDx=0;exitDy=0;entryX=0.250;entryY=1.000;entryDx=0;entryDy=0;">
      <mxGeometry width="50" height="50" relative="1" as="geometry">
        <Array as="points">
          <mxPoint x="4452" y="1214" />
          <mxPoint x="4360" y="1214" />
          <mxPoint x="4360" y="1174" />
          <mxPoint x="4400" y="1174" />
          <mxPoint x="4400" y="514" />
          <mxPoint x="5241" y="514" />
        </Array>
      </mxGeometry>
    </mxCell>
    <mxCell id="label402" parent="edge67" vertex="1" connectable="0" value="1" style="edgeLabel;resizable=0;html=1;align=left;verticalAlign=top;strokeColor=default;">
      <mxGeometry x="4348" y="1185" as="geometry" />
    </mxCell>
    <mxCell id="label406" parent="edge67" vertex="1" connectable="0" value="1" style="edgeLabel;resizable=0;html=1;align=left;verticalAlign=top;strokeColor=default;">
      <mxGeometry x="5189" y="271" as="geometry" />
    </mxCell>
    <mxCell id="label407" parent="edge67" vertex="1" connectable="0" value="inputReader" style="edgeLabel;resizable=0;html=1;align=left;verticalAlign=top;strokeColor=default;">
      <mxGeometry x="5281" y="319" as="geometry" />
    </mxCell>
    <mxCell id="edge44" edge="1" value="" parent="1" source="node31" target="node45" style="html=1;rounded=1;edgeStyle=orthogonalEdgeStyle;dashed=1;startArrow=none;endArrow=openThin;endSize=12;strokeColor=#595959;exitX=0.500;exitY=0.000;exitDx=0;exitDy=0;entryX=0.500;entryY=1.001;entryDx=0;entryDy=0;">
      <mxGeometry width="50" height="50" relative="1" as="geometry">
        <Array as="points">
          <mxPoint x="4580" y="554" />
          <mxPoint x="4420" y="554" />
        </Array>
      </mxGeometry>
    </mxCell>
    <mxCell id="label266" parent="edge44" vertex="1" connectable="0" value="«create»" style="edgeLabel;resizable=0;html=1;align=left;verticalAlign=top;strokeColor=default;">
      <mxGeometry x="4368" y="482" as="geometry" />
    </mxCell>
    <mxCell id="edge92" edge="1" value="" parent="1" source="node31" target="node50" style="html=1;rounded=1;edgeStyle=orthogonalEdgeStyle;dashed=0;startArrow=diamondThinstartSize=12;endArrow=openThin;endSize=12;strokeColor=#595959;exitX=0.167;exitY=0.000;exitDx=0;exitDy=0;entryX=0.750;entryY=1.000;entryDx=0;entryDy=0;">
      <mxGeometry width="50" height="50" relative="1" as="geometry">
        <Array as="points">
          <mxPoint x="4452" y="1214" />
          <mxPoint x="4360" y="1214" />
          <mxPoint x="4360" y="694" />
          <mxPoint x="3639" y="694" />
        </Array>
      </mxGeometry>
    </mxCell>
    <mxCell id="label552" parent="edge92" vertex="1" connectable="0" value="1" style="edgeLabel;resizable=0;html=1;align=left;verticalAlign=top;strokeColor=default;">
      <mxGeometry x="4400" y="1196" as="geometry" />
    </mxCell>
    <mxCell id="label556" parent="edge92" vertex="1" connectable="0" value="1" style="edgeLabel;resizable=0;html=1;align=left;verticalAlign=top;strokeColor=default;">
      <mxGeometry x="3627" y="229" as="geometry" />
    </mxCell>
    <mxCell id="label557" parent="edge92" vertex="1" connectable="0" value="sessionsController" style="edgeLabel;resizable=0;html=1;align=left;verticalAlign=top;strokeColor=default;">
      <mxGeometry x="3639" y="229" as="geometry" />
    </mxCell>
    <mxCell id="edge91" edge="1" value="" parent="1" source="node31" target="node55" style="html=1;rounded=1;edgeStyle=orthogonalEdgeStyle;dashed=0;startArrow=diamondThinstartSize=12;endArrow=openThin;endSize=12;strokeColor=#595959;exitX=0.167;exitY=0.000;exitDx=0;exitDy=0;entryX=0.750;entryY=1.000;entryDx=0;entryDy=0;">
      <mxGeometry width="50" height="50" relative="1" as="geometry">
        <Array as="points">
          <mxPoint x="4452" y="1214" />
          <mxPoint x="4360" y="1214" />
          <mxPoint x="4360" y="834" />
          <mxPoint x="3280" y="834" />
          <mxPoint x="3280" y="454" />
          <mxPoint x="1776" y="454" />
        </Array>
      </mxGeometry>
    </mxCell>
    <mxCell id="label546" parent="edge91" vertex="1" connectable="0" value="1" style="edgeLabel;resizable=0;html=1;align=left;verticalAlign=top;strokeColor=default;">
      <mxGeometry x="4440" y="1205" as="geometry" />
    </mxCell>
    <mxCell id="label550" parent="edge91" vertex="1" connectable="0" value="1" style="edgeLabel;resizable=0;html=1;align=left;verticalAlign=top;strokeColor=default;">
      <mxGeometry x="1764" y="365" as="geometry" />
    </mxCell>
    <mxCell id="label551" parent="edge91" vertex="1" connectable="0" value="sessionsRepository" style="edgeLabel;resizable=0;html=1;align=left;verticalAlign=top;strokeColor=default;">
      <mxGeometry x="1776" y="365" as="geometry" />
    </mxCell>
    <mxCell id="edge52" edge="1" value="" parent="1" source="node31" target="node16" style="html=1;rounded=1;edgeStyle=orthogonalEdgeStyle;dashed=0;startArrow=diamondThinstartSize=12;endArrow=openThin;endSize=12;strokeColor=#595959;exitX=0.167;exitY=0.000;exitDx=0;exitDy=0;entryX=0.250;entryY=1.000;entryDx=0;entryDy=0;">
      <mxGeometry width="50" height="50" relative="1" as="geometry">
        <Array as="points">
          <mxPoint x="4452" y="1214" />
          <mxPoint x="4360" y="1214" />
          <mxPoint x="4360" y="674" />
          <mxPoint x="4320" y="674" />
          <mxPoint x="4320" y="534" />
          <mxPoint x="4557" y="534" />
        </Array>
      </mxGeometry>
    </mxCell>
    <mxCell id="label312" parent="edge52" vertex="1" connectable="0" value="1" style="edgeLabel;resizable=0;html=1;align=left;verticalAlign=top;strokeColor=default;">
      <mxGeometry x="4348" y="1205" as="geometry" />
    </mxCell>
    <mxCell id="label316" parent="edge52" vertex="1" connectable="0" value="*" style="edgeLabel;resizable=0;html=1;align=left;verticalAlign=top;strokeColor=default;">
      <mxGeometry x="4547" y="228" as="geometry" />
    </mxCell>
    <mxCell id="label317" parent="edge52" vertex="1" connectable="0" value="menuItems" style="edgeLabel;resizable=0;html=1;align=left;verticalAlign=top;strokeColor=default;">
      <mxGeometry x="4557" y="303" as="geometry" />
    </mxCell>
    <mxCell id="edge59" edge="1" value="" parent="1" source="node31" target="node16" style="html=1;rounded=1;edgeStyle=orthogonalEdgeStyle;dashed=1;startArrow=none;endArrow=openThin;endSize=12;strokeColor=#595959;exitX=0.500;exitY=0.000;exitDx=0;exitDy=0;entryX=0.750;entryY=1.000;entryDx=0;entryDy=0;">
      <mxGeometry width="50" height="50" relative="1" as="geometry">
        <Array as="points">
          <mxPoint x="4580" y="734" />
          <mxPoint x="4800" y="734" />
          <mxPoint x="4800" y="494" />
          <mxPoint x="4643" y="494" />
        </Array>
      </mxGeometry>
    </mxCell>
    <mxCell id="label356" parent="edge59" vertex="1" connectable="0" value="«create»" style="edgeLabel;resizable=0;html=1;align=left;verticalAlign=top;strokeColor=default;">
      <mxGeometry x="4748" y="605" as="geometry" />
    </mxCell>
    <mxCell id="edge99" edge="1" value="" parent="1" source="node31" target="node61" style="html=1;rounded=1;edgeStyle=orthogonalEdgeStyle;dashed=1;startArrow=none;endArrow=openThin;endSize=12;strokeColor=#595959;exitX=0.500;exitY=0.000;exitDx=0;exitDy=0;entryX=0.500;entryY=1.000;entryDx=0;entryDy=0;">
      <mxGeometry width="50" height="50" relative="1" as="geometry">
        <Array as="points">
          <mxPoint x="4580" y="554" />
          <mxPoint x="4760" y="554" />
        </Array>
      </mxGeometry>
    </mxCell>
    <mxCell id="label596" parent="edge99" vertex="1" connectable="0" value="«create»" style="edgeLabel;resizable=0;html=1;align=left;verticalAlign=top;strokeColor=default;">
      <mxGeometry x="4644" y="535" as="geometry" />
    </mxCell>
    <mxCell id="edge16" edge="1" value="" parent="1" source="node24" target="node34" style="html=1;rounded=1;edgeStyle=orthogonalEdgeStyle;dashed=0;startArrow=none;endArrow=block;endSize=12;strokeColor=#000082;exitX=0.500;exitY=0.000;exitDx=0;exitDy=0;entryX=0.250;entryY=1.000;entryDx=0;entryDy=0;">
      <mxGeometry width="50" height="50" relative="1" as="geometry">
        <Array as="points">
          <mxPoint x="460" y="1254" />
          <mxPoint x="450" y="1254" />
        </Array>
      </mxGeometry>
    </mxCell>
    <mxCell id="edge45" edge="1" value="" parent="1" source="node24" target="node34" style="html=1;rounded=1;edgeStyle=orthogonalEdgeStyle;dashed=1;startArrow=none;endArrow=openThin;endSize=12;strokeColor=#595959;exitX=0.167;exitY=0.000;exitDx=0;exitDy=0;entryX=0.750;entryY=1.000;entryDx=0;entryDy=0;">
      <mxGeometry width="50" height="50" relative="1" as="geometry">
        <Array as="points">
          <mxPoint x="358" y="1934" />
          <mxPoint x="360" y="1934" />
          <mxPoint x="360" y="1674" />
          <mxPoint x="620" y="1674" />
          <mxPoint x="620" y="1254" />
          <mxPoint x="630" y="1254" />
        </Array>
      </mxGeometry>
    </mxCell>
    <mxCell id="label272" parent="edge45" vertex="1" connectable="0" value="«create»" style="edgeLabel;resizable=0;html=1;align=left;verticalAlign=top;strokeColor=default;">
      <mxGeometry x="464" y="1655" as="geometry" />
    </mxCell>
    <mxCell id="edge94" edge="1" value="" parent="1" source="node24" target="node55" style="html=1;rounded=1;edgeStyle=orthogonalEdgeStyle;dashed=1;startArrow=none;endArrow=block;endSize=12;strokeColor=#008200;exitX=0.833;exitY=0.000;exitDx=0;exitDy=0;entryX=0.250;entryY=1.000;entryDx=0;entryDy=0;">
      <mxGeometry width="50" height="50" relative="1" as="geometry">
        <Array as="points">
          <mxPoint x="562" y="1694" />
          <mxPoint x="1620" y="1694" />
          <mxPoint x="1620" y="854" />
          <mxPoint x="1624" y="854" />
        </Array>
      </mxGeometry>
    </mxCell>
    <mxCell id="edge37" edge="1" value="" parent="1" source="node24" target="node20" style="html=1;rounded=1;edgeStyle=orthogonalEdgeStyle;dashed=1;startArrow=none;endArrow=openThin;endSize=12;strokeColor=#595959;exitX=0.167;exitY=0.000;exitDx=0;exitDy=0;entryX=0.500;entryY=1.000;entryDx=0;entryDy=0;">
      <mxGeometry width="50" height="50" relative="1" as="geometry">
        <Array as="points">
          <mxPoint x="358" y="1934" />
          <mxPoint x="360" y="1934" />
          <mxPoint x="360" y="1894" />
          <mxPoint x="280" y="1894" />
        </Array>
      </mxGeometry>
    </mxCell>
    <mxCell id="label224" parent="edge37" vertex="1" connectable="0" value="«create»" style="edgeLabel;resizable=0;html=1;align=left;verticalAlign=top;strokeColor=default;">
      <mxGeometry x="308" y="1885" as="geometry" />
    </mxCell>
    <mxCell id="edge1" edge="1" value="" parent="1" source="node37" target="node34" style="html=1;rounded=1;edgeStyle=orthogonalEdgeStyle;dashed=0;startArrow=none;endArrow=block;endSize=12;strokeColor=#000082;exitX=0.167;exitY=0.000;exitDx=0;exitDy=0;entryX=0.250;entryY=1.000;entryDx=0;entryDy=0;">
      <mxGeometry width="50" height="50" relative="1" as="geometry">
        <Array as="points">
          <mxPoint x="910" y="1914" />
          <mxPoint x="460" y="1914" />
          <mxPoint x="460" y="1254" />
          <mxPoint x="450" y="1254" />
        </Array>
      </mxGeometry>
    </mxCell>
    <mxCell id="edge74" edge="1" value="" parent="1" source="node37" target="node34" style="html=1;rounded=1;edgeStyle=orthogonalEdgeStyle;dashed=1;startArrow=none;endArrow=openThin;endSize=12;strokeColor=#595959;exitX=0.500;exitY=0.000;exitDx=0;exitDy=0;entryX=0.750;entryY=1.000;entryDx=0;entryDy=0;">
      <mxGeometry width="50" height="50" relative="1" as="geometry">
        <Array as="points">
          <mxPoint x="1000" y="1714" />
          <mxPoint x="620" y="1714" />
          <mxPoint x="620" y="1254" />
          <mxPoint x="630" y="1254" />
        </Array>
      </mxGeometry>
    </mxCell>
    <mxCell id="label446" parent="edge74" vertex="1" connectable="0" value="«create»" style="edgeLabel;resizable=0;html=1;align=left;verticalAlign=top;strokeColor=default;">
      <mxGeometry x="568" y="1475" as="geometry" />
    </mxCell>
    <mxCell id="edge96" edge="1" value="" parent="1" source="node37" target="node57" style="html=1;rounded=1;edgeStyle=orthogonalEdgeStyle;dashed=1;startArrow=none;endArrow=block;endSize=12;strokeColor=#008200;exitX=0.833;exitY=0.000;exitDx=0;exitDy=0;entryX=0.250;entryY=1.000;entryDx=0;entryDy=0;">
      <mxGeometry width="50" height="50" relative="1" as="geometry">
        <Array as="points">
          <mxPoint x="1090" y="1954" />
          <mxPoint x="3550" y="1954" />
        </Array>
      </mxGeometry>
    </mxCell>
    <mxCell id="edge47" edge="1" value="" parent="1" source="node37" target="node19" style="html=1;rounded=1;edgeStyle=orthogonalEdgeStyle;dashed=1;startArrow=none;endArrow=openThin;endSize=12;strokeColor=#595959;exitX=0.500;exitY=0.000;exitDx=0;exitDy=0;entryX=0.500;entryY=1.000;entryDx=0;entryDy=0;">
      <mxGeometry width="50" height="50" relative="1" as="geometry">
        <Array as="points" />
      </mxGeometry>
    </mxCell>
    <mxCell id="label284" parent="edge47" vertex="1" connectable="0" value="«create»" style="edgeLabel;resizable=0;html=1;align=left;verticalAlign=top;strokeColor=default;">
      <mxGeometry x="948" y="1555" as="geometry" />
    </mxCell>
    <mxCell id="edge32" edge="1" value="" parent="1" source="node22" target="node40" style="html=1;rounded=1;edgeStyle=orthogonalEdgeStyle;dashed=0;startArrow=diamondThinstartSize=12;endArrow=openThin;endSize=12;strokeColor=#595959;exitX=0.500;exitY=0.000;exitDx=0;exitDy=0;entryX=0.500;entryY=1.001;entryDx=0;entryDy=0;">
      <mxGeometry width="50" height="50" relative="1" as="geometry">
        <Array as="points">
          <mxPoint x="1760" y="874" />
          <mxPoint x="900" y="874" />
        </Array>
      </mxGeometry>
    </mxCell>
    <mxCell id="label192" parent="edge32" vertex="1" connectable="0" value="1" style="edgeLabel;resizable=0;html=1;align=left;verticalAlign=top;strokeColor=default;">
      <mxGeometry x="1748" y="1487" as="geometry" />
    </mxCell>
    <mxCell id="label196" parent="edge32" vertex="1" connectable="0" value="*" style="edgeLabel;resizable=0;html=1;align=left;verticalAlign=top;strokeColor=default;">
      <mxGeometry x="890" y="229" as="geometry" />
    </mxCell>
    <mxCell id="label197" parent="edge32" vertex="1" connectable="0" value="rowEntities" style="edgeLabel;resizable=0;html=1;align=left;verticalAlign=top;strokeColor=default;">
      <mxGeometry x="940" y="229" as="geometry" />
    </mxCell>
    <mxCell id="edge7" edge="1" value="" parent="1" source="node7" target="node41" style="html=1;rounded=1;edgeStyle=orthogonalEdgeStyle;dashed=0;startArrow=none;endArrow=block;endSize=12;strokeColor=#000082;exitX=0.500;exitY=0.000;exitDx=0;exitDy=0;entryX=0.833;entryY=1.001;entryDx=0;entryDy=0;">
      <mxGeometry width="50" height="50" relative="1" as="geometry">
        <Array as="points">
          <mxPoint x="820" y="894" />
          <mxPoint x="580" y="894" />
          <mxPoint x="580" y="474" />
          <mxPoint x="589" y="474" />
        </Array>
      </mxGeometry>
    </mxCell>
    <mxCell id="edge55" edge="1" value="" parent="1" source="node7" target="node41" style="html=1;rounded=1;edgeStyle=orthogonalEdgeStyle;dashed=1;startArrow=none;endArrow=openThin;endSize=12;strokeColor=#595959;exitX=0.167;exitY=0.000;exitDx=0;exitDy=0;entryX=0.167;entryY=1.001;entryDx=0;entryDy=0;">
      <mxGeometry width="50" height="50" relative="1" as="geometry">
        <Array as="points">
          <mxPoint x="746" y="914" />
          <mxPoint x="500" y="914" />
          <mxPoint x="500" y="474" />
          <mxPoint x="491" y="474" />
        </Array>
      </mxGeometry>
    </mxCell>
    <mxCell id="label332" parent="edge55" vertex="1" connectable="0" value="«create»" style="edgeLabel;resizable=0;html=1;align=left;verticalAlign=top;strokeColor=default;">
      <mxGeometry x="448" y="685" as="geometry" />
    </mxCell>
    <mxCell id="edge41" edge="1" value="" parent="1" source="node7" target="node40" style="html=1;rounded=1;edgeStyle=orthogonalEdgeStyle;dashed=0;startArrow=diamondThinstartSize=12;endArrow=openThin;endSize=12;strokeColor=#595959;exitX=0.833;exitY=0.000;exitDx=0;exitDy=0;entryX=0.500;entryY=1.001;entryDx=0;entryDy=0;">
      <mxGeometry width="50" height="50" relative="1" as="geometry">
        <Array as="points">
          <mxPoint x="894" y="874" />
          <mxPoint x="900" y="874" />
        </Array>
      </mxGeometry>
    </mxCell>
    <mxCell id="label246" parent="edge41" vertex="1" connectable="0" value="1" style="edgeLabel;resizable=0;html=1;align=left;verticalAlign=top;strokeColor=default;">
      <mxGeometry x="882" y="1473" as="geometry" />
    </mxCell>
    <mxCell id="label250" parent="edge41" vertex="1" connectable="0" value="*" style="edgeLabel;resizable=0;html=1;align=left;verticalAlign=top;strokeColor=default;">
      <mxGeometry x="850" y="229" as="geometry" />
    </mxCell>
    <mxCell id="label251" parent="edge41" vertex="1" connectable="0" value="rowEntities" style="edgeLabel;resizable=0;html=1;align=left;verticalAlign=top;strokeColor=default;">
      <mxGeometry x="900" y="214" as="geometry" />
    </mxCell>
    <mxCell id="edge5" edge="1" value="" parent="1" source="node23" target="node41" style="html=1;rounded=1;edgeStyle=orthogonalEdgeStyle;dashed=0;startArrow=none;endArrow=block;endSize=12;strokeColor=#000082;exitX=0.750;exitY=0.000;exitDx=0;exitDy=0;entryX=0.833;entryY=1.001;entryDx=0;entryDy=0;">
      <mxGeometry width="50" height="50" relative="1" as="geometry">
        <Array as="points">
          <mxPoint x="145" y="894" />
          <mxPoint x="580" y="894" />
          <mxPoint x="580" y="474" />
          <mxPoint x="589" y="474" />
        </Array>
      </mxGeometry>
    </mxCell>
    <mxCell id="edge85" edge="1" value="" parent="1" source="node23" target="node41" style="html=1;rounded=1;edgeStyle=orthogonalEdgeStyle;dashed=1;startArrow=none;endArrow=openThin;endSize=12;strokeColor=#595959;exitX=0.250;exitY=0.000;exitDx=0;exitDy=0;entryX=0.167;entryY=1.001;entryDx=0;entryDy=0;">
      <mxGeometry width="50" height="50" relative="1" as="geometry">
        <Array as="points">
          <mxPoint x="55" y="914" />
          <mxPoint x="500" y="914" />
          <mxPoint x="500" y="474" />
          <mxPoint x="491" y="474" />
        </Array>
      </mxGeometry>
    </mxCell>
    <mxCell id="label512" parent="edge85" vertex="1" connectable="0" value="«create»" style="edgeLabel;resizable=0;html=1;align=left;verticalAlign=top;strokeColor=default;">
      <mxGeometry x="448" y="575" as="geometry" />
    </mxCell>
    <mxCell id="edge6" edge="1" value="" parent="1" source="node16" target="node36" style="html=1;rounded=1;edgeStyle=orthogonalEdgeStyle;dashed=0;startArrow=circlePlus;startFill=0;endArrow=none;strokeColor=#820000;exitX=0.500;exitY=0.001;exitDx=0;exitDy=0;entryX=0.375;entryY=1.000;entryDx=0;entryDy=0;">
      <mxGeometry width="50" height="50" relative="1" as="geometry">
        <Array as="points">
          <mxPoint x="4600" y="54" />
          <mxPoint x="4849" y="54" />
        </Array>
      </mxGeometry>
    </mxCell>
    <mxCell id="edge12" edge="1" value="" parent="1" source="node20" target="node41" style="html=1;rounded=1;edgeStyle=orthogonalEdgeStyle;dashed=0;startArrow=none;endArrow=block;endSize=12;strokeColor=#000082;exitX=0.750;exitY=0.000;exitDx=0;exitDy=0;entryX=0.833;entryY=1.001;entryDx=0;entryDy=0;">
      <mxGeometry width="50" height="50" relative="1" as="geometry">
        <Array as="points">
          <mxPoint x="345" y="894" />
          <mxPoint x="580" y="894" />
          <mxPoint x="580" y="474" />
          <mxPoint x="589" y="474" />
        </Array>
      </mxGeometry>
    </mxCell>
    <mxCell id="edge20" edge="1" value="" parent="1" source="node20" target="node41" style="html=1;rounded=1;edgeStyle=orthogonalEdgeStyle;dashed=1;startArrow=none;endArrow=openThin;endSize=12;strokeColor=#595959;exitX=0.250;exitY=0.000;exitDx=0;exitDy=0;entryX=0.167;entryY=1.001;entryDx=0;entryDy=0;">
      <mxGeometry width="50" height="50" relative="1" as="geometry">
        <Array as="points">
          <mxPoint x="215" y="914" />
          <mxPoint x="500" y="914" />
          <mxPoint x="500" y="474" />
          <mxPoint x="491" y="474" />
        </Array>
      </mxGeometry>
    </mxCell>
    <mxCell id="label122" parent="edge20" vertex="1" connectable="0" value="«create»" style="edgeLabel;resizable=0;html=1;align=left;verticalAlign=top;strokeColor=default;">
      <mxGeometry x="448" y="795" as="geometry" />
    </mxCell>
    <mxCell id="edge8" edge="1" value="" parent="1" source="node19" target="node41" style="html=1;rounded=1;edgeStyle=orthogonalEdgeStyle;dashed=0;startArrow=none;endArrow=block;endSize=12;strokeColor=#000082;exitX=0.750;exitY=0.000;exitDx=0;exitDy=0;entryX=0.833;entryY=1.001;entryDx=0;entryDy=0;">
      <mxGeometry width="50" height="50" relative="1" as="geometry">
        <Array as="points">
          <mxPoint x="1044" y="894" />
          <mxPoint x="580" y="894" />
          <mxPoint x="580" y="474" />
          <mxPoint x="589" y="474" />
        </Array>
      </mxGeometry>
    </mxCell>
    <mxCell id="edge80" edge="1" value="" parent="1" source="node19" target="node41" style="html=1;rounded=1;edgeStyle=orthogonalEdgeStyle;dashed=1;startArrow=none;endArrow=openThin;endSize=12;strokeColor=#595959;exitX=0.250;exitY=0.000;exitDx=0;exitDy=0;entryX=0.167;entryY=1.001;entryDx=0;entryDy=0;">
      <mxGeometry width="50" height="50" relative="1" as="geometry">
        <Array as="points">
          <mxPoint x="957" y="914" />
          <mxPoint x="500" y="914" />
          <mxPoint x="500" y="474" />
          <mxPoint x="491" y="474" />
        </Array>
      </mxGeometry>
    </mxCell>
    <mxCell id="label482" parent="edge80" vertex="1" connectable="0" value="«create»" style="edgeLabel;resizable=0;html=1;align=left;verticalAlign=top;strokeColor=default;">
      <mxGeometry x="448" y="905" as="geometry" />
    </mxCell>
  </root>
</mxGraphModel>